<svg id="Capa_1" enable-background="new 0 0 512.137 512.137" height="512" viewBox="0 0 512.137 512.137" width="512" xmlns="http://www.w3.org/2000/svg"><g id="XMLID_17_"><path id="XMLID_36_" d="m460.092 52.208c-.396-.396-.787-.783-1.187-1.176-33.74-33.115-78.365-51.238-125.656-51.03-47.324.207-91.816 18.752-125.281 52.217-7.253 7.253-13.858 15.127-19.751 23.494l51.442 42.656c4.312-6.781 9.415-13.205 15.334-19.124 43.403-43.403 113.617-43.653 157.328-.75 43.781 42.972 44.562 114.013 1.689 157.891-8.082 8.271-17.124 15.02-26.773 20.244-19.415 10.513-38.228 22.102-56.772 34.085l-52.3 33.795c-26.427 17.077-48.587 39.783-66.081 65.935-3.2 4.785-6.978 9.298-11.333 13.443-30.776 29.284-79.807 28.959-110.209-.713-29.859-29.142-31.824-75.876-5.895-107.334 1.127-1.367 9.011-11.347 19.353-24.467l-51.205-42.46c-11.772 14.947-17.813 22.59-19.556 24.74-22.852 27.779-34.583 62.908-33.036 98.932 1.559 36.323 16.509 70.558 42.095 96.399 0 0 .511.514.513.517 26.984 26.984 62.97 42.122 101.323 42.623 38.397.501 74.784-13.727 102.467-40.067 7.809-7.433 14.791-15.719 20.759-24.638 13.094-19.576 28.873-35.407 46.896-47.054l53.708-34.704c17.528-11.326 35.565-21.825 53.742-32.079 14.592-8.231 27.937-18.508 39.871-30.722 67.899-69.493 67.232-181.936-1.485-250.653z"/><path id="XMLID_37_" d="m193.63 210.039-82.601-68.494-57.039 69.386 82.601 68.494z"/><path id="XMLID_38_" d="m238.049 156.005-82.601-68.494-25.368 30.859 82.601 68.494z"/></g></svg>