<?xml version="1.0" encoding="utf-8"?>
<!-- Svg Vector Icons : http://www.onlinewebfonts.com/icon -->
<!DOCTYPE svg PUBLIC "-//W3C//DTD SVG 1.1//EN" "http://www.w3.org/Graphics/SVG/1.1/DTD/svg11.dtd">
<svg version="1.1" xmlns="http://www.w3.org/2000/svg" xmlns:xlink="http://www.w3.org/1999/xlink" x="0px" y="0px" viewBox="0 0 1000 1000" enable-background="new 0 0 1000 1000" xml:space="preserve">
<metadata> Svg Vector Icons : http://www.onlinewebfonts.com/icon </metadata>
<g><g transform="translate(0.000000,512.000000) scale(0.100000,-0.100000)"><path d="M2044.6,4998.3c-257-57.5-414.2-197.5-519.7-462.1c-40.3-103.5-44.1-143.8-44.1-431.5c-1.9-295.3,26.8-529.3,95.9-778.5c7.7-32.6-1.9-42.2-63.3-61.4c-40.3-11.5-155.3-61.4-255-111.2c-458.3-222.4-709.5-477.5-763.2-772.8c-28.8-155.3,51.8-941.5,157.2-1543.6C710,501.6,614.1-117.8,368.7-971.1c-245.5-853.3-268.5-972.2-268.5-1386.4c-1.9-228.2,7.7-364.3,32.6-489C316.9-3778.5,840.4-4417,1632.4-4673.9c341.3-111.2,295.3-109.3,2377.8-109.3c1741.1,0,1940.6,3.9,2164.9,34.5c540.7,74.8,845.6,168.7,1135.2,349c166.8,105.5,398.9,345.2,481.3,500.5c187.9,352.8,255,818.8,216.7,1503.4c-47.9,864.8-230.1,1810.2-535,2776.7c-30.7,95.9-49.9,180.3-42.2,184.1c7.7,5.8,122.7,19.2,257,32.6c688.4,69,1154.4-145.7,1334.6-615.6c74.8-193.7,97.8-329.8,97.8-582.9c0-373.9-63.3-663.5-266.5-1215.7c-117-318.3-201.3-596.4-264.6-876.3c-49.9-220.5-49.9-759.4,0-918.5c149.6-483.2,546.5-778.5,1045.1-778.5c164.9,0,224.4,30.7,255,132.3c44.1,151.5-49.9,237.8-281.9,258.9c-475.6,44.1-709.5,362.4-669.2,920.4c21.1,314.5,107.4,652,297.2,1162c212.8,575.3,276.1,876.4,276.1,1313.5c0,341.3-32.6,523.5-141.9,780.5c-161.1,379.7-487.1,652-916.6,767c-178.3,47.9-665.4,69-885.9,38.4c-78.6-11.5-143.8-19.2-145.7-17.3c-1.9,1.9,11.5,86.3,32.6,186c59.5,308.7,97.8,753.6,90.1,1035.5c-7.7,237.8-13.4,268.5-65.2,373.9c-115.1,237.8-418,475.6-818.8,644.3c-107.4,46-199.4,84.4-201.3,86.3c-3.8,1.9,9.6,90.1,30.7,193.7c130.4,640.5,92,1050.8-124.6,1290.5c-109.3,120.8-210.9,182.2-370.1,218.6c-416.1,97.8-809.2-63.3-993.3-404.6c-95.9-180.2-149.6-419.9-186-830.3l-11.5-124.6h-795.8h-793.9v105.5c0,140-47.9,471.7-88.2,609.8c-78.6,274.2-232,477.5-435.3,575.3C2487.6,5023.2,2270.9,5048.1,2044.6,4998.3z M2497.2,4586c193.7-88.2,287.6-326,326-836.1l11.5-174.5l-168.8-23c-94-13.4-289.6-51.8-435.3-82.5c-147.7-32.6-268.5-55.6-270.4-51.8c-3.8,3.8-19.2,78.6-36.4,168.7c-115.1,590.6-78.6,889.8,120.8,993.3C2155.9,4635.9,2380.2,4639.7,2497.2,4586z M5950.8,4601.3c84.4-30.7,155.3-111.2,189.8-214.8c26.9-80.5,30.7-141.9,21.1-356.7c-11.5-222.4-65.2-579.1-94-606c-5.8-5.8-103.5,11.5-218.6,36.4c-115.1,24.9-306.8,61.4-423.8,80.5l-216.7,34.5v115.1c0,145.7,44.1,450.6,82.5,571.4c80.5,256.9,214.8,360.5,466,360.5C5833.8,4622.4,5920.1,4612.8,5950.8,4601.3z M4901.8,3213c910.8-95.9,1618.4-304.9,2005.8-590.6c164.9-120.8,224.4-203.3,232-326c7.7-84.4,0-113.1-47.9-187.9c-184.1-285.7-878.2-571.4-1712.4-707.6c-586.8-94-1480.4-126.6-2088.2-76.7c-1198.5,99.7-2189.9,448.7-2377.8,834.1c-47.9,99.7-47.9,145.7-1.9,235.9c199.4,387.4,1158.2,728.7,2322.2,828.4c396.9,32.6,433.4,34.5,920.4,26.8C4412.9,3245.6,4748.4,3230.3,4901.8,3213z M7087.9,1349.1c-90.1-548.4-109.3-588.7-349-747.9c-393.1-255-1100.7-467.9-1885-563.8C4560.5,1.1,3793.5,6.8,3492.4,47.1c-490.9,65.2-937.7,184.1-1323.1,349c-109.3,46-216.7,84.4-237.8,84.4c-176.4,0-258.9-243.5-117-345.2c78.6-55.6,425.7-199.4,648.1-268.5c247.4-74.8,629-161.1,924.3-203.3c297.2-44.1,1233-51.8,1553.2-11.5c818.8,99.7,1559,329.8,2019.2,623.2c59.5,38.3,111.2,63.3,115,55.6c23-38.3,193.7-646.2,260.8-924.3c176.4-724.8,266.5-1350,283.8-1946.3c21.1-778.5-67.1-1121.8-360.5-1399.8c-301.1-283.8-772.8-414.2-1637.6-450.6c-540.8-24.9-3106.5-23-3390.3,0c-352.8,28.8-556.1,90.1-826.5,247.4c-698,408.5-1054.7,1342.3-866.7,2270.4c26.8,132.3,105.5,435.3,174.5,676.9C934.4-428.5,1034.1,68.2,1059,518.8c9.6,184.1,3.8,268.5-36.4,508.2c-63.3,370.1-80.5,535-59.4,525.4c9.6-3.8,72.9-40.3,141.9-78.6c941.5-531.2,2912.8-722.9,4477.5-435.3c602.1,111.2,1177.4,312.6,1476.5,513.9c30.7,21.1,57.5,36.4,61.4,32.6C7124.3,1583.1,7109,1475.7,7087.9,1349.1z"/></g></g>
</svg>