<svg aria-hidden="true" style="position: absolute; width: 0; height: 0; overflow: hidden;" version="1.1" xmlns="http://www.w3.org/2000/svg" xmlns:xlink="http://www.w3.org/1999/xlink">
<defs>
<symbol id="icon-mountain" viewBox="0 0 500 500">
<title>mountain</title>
<path d="M351.56 265.63L453.13 437.5L250 437.5L46.88 437.5L148.43 265.63L250 93.75L351.56 265.63Z" id="cF9r56usF"></path>
<path d="M227.12 194.09L238.28 183.51L250.89 202.68L265.63 199.26L274.01 202.68L301.56 210.9L250.89 125L200.52 213.63L227.12 194.09Z" id="baiMAOmqi"></path>
<path d="M211.69 320.31L282.25 437.5L141.12 437.5L0 437.5L70.56 320.31L141.12 203.12L211.69 320.31Z" id="a4xgfcmRMc"></path>
<path d="M443.47 343.75L502.75 437.5L384.19 437.5L265.63 437.5L324.9 343.75L384.19 250L443.47 343.75Z" id="eKZ47gs0J"></path>
</symbol>
<symbol id="icon-phone" viewBox="0 0 512.001 512.001" style="enable-background:new 0 0 512.001 512.001;" xml:space="preserve">
<title>contact-us</title>
<path d="M498.808,377.784l-63.633-63.647c-16.978-16.978-46.641-17.007-63.647,0l-10.611,10.611l127.284,127.277l10.607-10.607
            C516.427,423.798,516.368,395.314,498.808,377.784z"/>
<path d="M339.116,345.37c-13.39,10.373-32.492,9.959-44.727-2.303L168.572,217.163c-12.263-12.263-12.676-31.379-2.303-44.736
            L39.278,45.443c-54.631,63.68-52.495,159.633,7.8,219.928l199.103,199.19c57.86,57.858,152.635,65.532,219.932,7.797
            L339.116,345.37z"/>
<path d="M197.503,76.391L133.87,12.744c-16.978-16.978-46.641-17.007-63.647,0L59.612,23.355l127.284,127.277l10.607-10.608
            C215.121,122.406,215.063,93.922,197.503,76.391z"/>
</symbol>
<symbol id="icon-mountain-outline" viewBox="0 0 32 32">
<title>Mountain</title>
<path d="M10.987 20.254c0.051 0.154 0.205 0.26 0.188 0.457-0.141-0.043-0.256-0.098-0.316-0.239-0.055-0.132-0.132-0.256-0.192-0.384-0.098-0.213-0.149-0.452-0.282-0.653-0.107-0.162-0.119-0.337-0.137-0.521-0.004-0.034-0.013-0.081 0.030-0.090 0.038-0.009 0.085 0.047 0.137 0.128 0.102 0.171 0.209 0.452 0.239 0.512 0.128 0.26 0.243 0.521 0.333 0.789zM29.952 20.305c-0.026-0.060-0.047-0.124-0.060-0.188-0.243-0.183-0.482-0.367-0.751-0.516-0.128-0.073-0.247-0.158-0.358-0.252 0-0.017-0.004-0.034-0.021-0.051-0.128-0.145-0.26-0.286-0.388-0.431-0.094-0.158-0.226-0.29-0.371-0.397-0.23-0.171-0.444-0.35-0.636-0.555-0.252-0.269-0.55-0.38-0.913-0.341-0.196 0.021-0.341-0.073-0.422-0.239-0.115-0.235-0.324-0.41-0.533-0.555-0.192-0.132-0.478-0.256-0.61-0.448-0.055-0.077-0.132-0.141-0.175-0.23-0.132-0.265-0.367-0.384-0.627-0.491-0.111-0.043-0.192-0.128-0.26-0.218-0.077-0.098-0.158-0.179-0.243-0.273-0.081-0.085-0.107-0.218-0.183-0.316-0.090-0.115-0.201-0.213-0.316-0.303-0.183-0.145-0.367-0.29-0.521-0.465-0.111-0.128-0.209-0.209-0.371-0.111-0.132 0.081-0.26 0.171-0.375 0.273-0.051 0.047-0.102 0.094-0.145 0.145-0.038 0.047-0.068 0.141-0.115 0.179-0.235 0.196-0.521 0.333-0.755 0.529-0.077 0.064-0.166 0.043-0.218-0.051-0.154-0.273-0.371-0.491-0.585-0.713-0.047-0.051-0.102-0.094-0.158-0.128-0.179-0.102-0.32-0.247-0.55-0.218-0.009-0.009-0.013-0.013-0.021-0.021-0.29-0.26-0.533-0.563-0.798-0.845-0.064-0.068-0.107-0.158-0.166-0.23-0.107-0.132-0.26-0.196-0.41-0.269-0.282-0.128-0.529-0.32-0.777-0.503-0.367-0.269-0.691-0.572-0.909-0.981-0.102-0.188-0.252-0.192-0.418-0.030-0.29 0.282-0.555 0.589-0.806 0.905-0.149 0.188-0.32 0.35-0.512 0.491-0.043 0.030-0.081 0.064-0.124 0.098-0.222 0.111-0.41 0.269-0.559 0.474-0.009 0.013-0.013 0.026-0.013 0.038-0.183 0.162-0.35 0.324-0.486 0.521-0.222 0.316-0.448 0.631-0.653 0.956-0.218 0.346-0.533 0.597-0.815 0.879-0.188 0.188-0.401 0.358-0.636 0.495-0.141 0.081-0.273 0.068-0.41-0.030-0.060-0.043-0.124-0.090-0.188-0.128 0-0.021-0.009-0.043-0.034-0.060-0.188-0.128-0.405-0.256-0.58-0.41-0.183-0.166-0.367-0.333-0.55-0.499-0.124-0.111-0.286-0.333-0.478-0.307-0.077 0.013-0.252 0.064-0.29 0.141-0.034 0.068-0.051 0.141-0.085 0.209-0.077 0.154-0.179 0.286-0.316 0.384-0.32 0.243-0.576 0.559-0.866 0.832-0.316 0.294-0.704 0.478-1.050 0.738-0.077 0.017-0.128 0.111-0.209 0.124-0.162 0.026-0.316 0.102-0.457 0.196-0.235 0.162-0.29 0.452-0.486 0.644-0.055 0.051-0.102 0.111-0.162 0.158-0.047 0.038-0.115 0.064-0.158 0.107-0.098 0.081-0.196 0.158-0.299 0.235-0.192 0.149-0.384 0.26-0.597 0.371-0.397 0.213-0.764 0.452-0.998 0.853-0.149 0.256-0.341 0.482-0.508 0.725-0.137 0.196-0.252 0.41-0.422 0.597 0.034 0.017 0.047 0.030 0.055 0.026 0.311-0.115 0.631-0.077 0.947-0.060 0.277 0.013 0.474-0.124 0.683-0.294 0.183-0.149 0.418-0.282 0.623-0.393 0.081-0.047 0.192-0.068 0.269-0.119 0.073-0.047 0.115-0.141 0.183-0.196 0.149-0.119 0.243-0.277 0.337-0.444 0.043-0.081 0.132-0.119 0.226-0.137 0.213-0.034 0.35-0.162 0.444-0.354 0.107-0.213 0.286-0.371 0.474-0.512 0.077-0.060 0.162-0.149 0.252-0.179 0.128-0.043 0.294-0.026 0.427-0.047 0.341-0.051 0.627-0.252 0.87-0.491 0.26-0.26 0.512-0.521 0.666-0.87 0.030-0.073 0.132-0.158 0.222-0.226 0.235-0.171 0.457-0.358 0.41-0.704-0.013-0.098 0.017-0.196 0.038-0.294 0.064-0.017 0.119-0.055 0.132-0.128 0-0.004 0-0.009 0-0.013 0.047-0.060 0.081-0.038 0.205 0.043 0.004 0.004 0.009 0.004 0.013 0.009 0.085 0.090 0.183 0.162 0.286 0.226 0.388 0.329 0.785 0.64 1.259 0.849 0.277 0.124 0.469 0.337 0.512 0.657 0.021 0.175 0.115 0.329 0.201 0.478 0.047 0.085 0.055 0.265 0.171 0.286 0.030 0.004 0.068 0.009 0.090 0.030 0.017 0.017 0.021 0.043 0.026 0.068 0.038 0.179 0.183 0.265 0.32 0.371 0.435 0.337 0.742 0.883 1.254 1.114 0.256 0.115 0.469 0.303 0.683 0.486 0.371 0.316 0.759 0.678 1.212 0.87 0.064 0.026 0.154 0.098 0.201 0.021 0.043-0.068-0.017-0.154-0.077-0.213-0.102-0.098-0.205-0.196-0.311-0.286-0.094-0.077-0.132-0.179-0.162-0.294-0.034-0.137 0.009-0.218 0.098-0.324 0.111-0.128 0.154-0.277 0.205-0.439 0.030-0.102 0.090-0.192 0.183-0.252 0.102-0.064 0.226-0.068 0.324-0.137 0.239-0.166 0.371-0.563 0.388-0.841 0.017-0.29 0.047-0.58 0.060-0.87 0.004-0.081 0.034-0.166 0.111-0.205 0.051-0.030 0.115-0.038 0.171-0.051 0.201-0.051 0.124-0.239 0.158-0.38-0.017 0.064 0.115 0.009 0.124 0 0.102-0.060 0.192-0.196 0.32-0.205 0.119-0.009 0.196 0.115 0.26 0.201 0.111 0.149 0.23 0.29 0.384 0.401 0.329 0.243 0.58 0.55 0.687 0.951 0.021 0.077 0.077 0.209 0.111 0.282 0.137 0.282 0.243 0.576 0.397 0.849 0.021 0.043 0.213 0.358 0.32 0.367 0.034 0.004 0.055-0.004 0.055-0.047-0.009-0.158-0.132-0.252-0.209-0.375-0.017-0.030-0.038-0.145-0.073-0.247-0.119-0.384-0.265-0.755-0.457-1.114-0.051-0.094-0.060-0.222-0.115-0.324-0.098-0.183-0.269-0.311-0.41-0.457-0.277-0.29-0.508-0.589-0.448-1.024 0.055-0.017 0.081 0.034 0.119 0.064 0.26 0.183 0.533 0.358 0.823 0.491 0.137 0.060 0.256 0.102 0.38 0.192 0.179 0.132 0.32 0.303 0.495 0.439 0.162 0.124 0.333 0.239 0.439 0.418 0.094 0.162 0.252 0.277 0.375 0.414 0.111 0.124 0.149 0.286 0.209 0.435 0.030 0.077 0.064 0.149 0.119 0.213 0.154 0.188 0.141 0.444 0.226 0.661 0.047 0.124 0.055 0.277 0.141 0.388s0.158 0.239 0.213 0.367c0.055 0.128 0.077 0.286 0.188 0.375 0.047 0.038 0.098 0.073 0.145 0.111 0.030 0.081 0.085 0.158 0.149 0.239 0.030-0.32-0.128-0.606-0.265-0.879-0.183-0.367-0.213-0.772-0.282-1.173 0.090 0 0.149 0.043 0.201 0.085 0.303 0.23 0.631 0.435 0.828 0.777 0.043 0.073 0.119 0.111 0.192 0.141 0.171 0.068 0.307 0.166 0.405 0.324 0.064 0.102 0.145 0.158 0.252 0.196 0.128 0.047 0.247 0.115 0.375 0.166 0.158 0.060 0.316 0.064 0.469-0.009 0.051-0.021 0.034-0.102-0.038-0.132-0.115-0.051-0.226-0.111-0.346-0.149-0.166-0.055-0.303-0.154-0.401-0.282-0.154-0.209-0.358-0.35-0.563-0.495-0.235-0.166-0.431-0.375-0.55-0.636-0.094-0.201-0.239-0.303-0.435-0.367-0.128-0.043-0.26-0.081-0.371-0.154-0.503-0.452-0.892-1.020-1.417-1.455-0.286-0.239-0.589-0.482-0.947-0.64-0.277-0.119-0.559-0.239-0.751-0.495-0.004-0.004-0.009-0.009-0.013-0.013s-0.004-0.009-0.009-0.013c-0.026-0.034-0.055-0.064-0.085-0.085-0.004-0.004-0.004-0.004-0.009-0.009-0.111-0.111-0.243-0.201-0.397-0.247-0.162-0.055-0.41 0.073-0.508 0.256-0.009 0.017-0.009 0.043-0.021 0.055-0.188 0.175-0.311 0.401-0.482 0.593-0.201 0.222-0.444 0.26-0.695 0.397-0.183 0.102-0.286 0.324-0.427 0.478-0.171 0.192-0.324 0.397-0.393 0.649-0.021 0.090-0.085 0.158-0.154 0.218-0.124 0.119-0.265 0.209-0.418 0.286-0.055 0.026-0.115 0.055-0.149 0.102-0.171 0.218-0.439 0.282-0.653 0.435-0.090 0.064-0.162 0.055-0.247-0.038-0.119-0.132-0.277-0.222-0.346-0.405-0.038-0.098-0.060-0.154-0.038-0.188 0.145-0.030 0.282-0.073 0.418-0.137 0.060-0.026 0.043-0.094 0-0.124 0.201-0.337 0.397-0.653 0.474-1.020s0.055-0.751 0.149-1.118c0.047-0.188 0.115-0.354 0.286-0.482 0.158-0.115 0.243-0.307 0.358-0.465 0.038-0.051 0.038-0.119 0.034-0.188-0.021-0.294 0.009-0.64 0.265-0.828 0.162-0.124 0.29-0.29 0.363-0.482 0.077-0.201 0.055-0.414 0.205-0.585 0.137-0.154 0.247-0.32 0.286-0.525 0.017-0.085 0.081-0.145 0.145-0.183 0.141-0.085 0.401 0.273 0.491 0.35 0.294 0.256 0.619 0.486 0.939 0.708 0.124 0.085 0.265 0.154 0.397 0.23 0.192 0.107 0.307 0.32 0.448 0.482 0.064 0.077 0.060 0.132-0.047 0.128-0.277-0.013-0.499 0.141-0.742 0.243-0.068 0.030-0.137 0.064-0.166 0.166 0.141-0.017 0.269-0.026 0.397-0.047 0.154-0.030 0.299 0.026 0.444 0.068 0.158 0.047 0.316 0.047 0.478 0.064 0.346 0.038 0.742 0.119 0.977 0.388 0.239 0.273 0.444 0.572 0.631 0.879 0.162 0.26 0.337 0.516 0.508 0.768 0.026 0.038 0.064 0.102 0.115 0.077s0.021-0.090 0.013-0.137c-0.009-0.055-0.026-0.107-0.017-0.175 0.26 0.055 0.478 0.183 0.644 0.367 0.41 0.457 0.777 0.947 1.152 1.429 0.094 0.119 0.137 0.247 0.179 0.38 0.047 0.141 0.107 0.273 0.209 0.384 0.154 0.166 0.235 0.375 0.358 0.559 0.030 0.043 0.047 0.090 0.115 0.090 0.030-0.068 0.021-0.158-0.009-0.201-0.145-0.209-0.145-0.461-0.213-0.691-0.026-0.090-0.034-0.145-0.013-0.183 0.068 0.009 0.137 0.013 0.209 0.021 0.23 0.111 0.448 0.247 0.691 0.337 0.171 0.060 0.32 0.149 0.444 0.282 0.145 0.154 0.316 0.269 0.491 0.375 0.047 0.030 0.060 0.115 0.085 0.175 0.081 0.192 0.111 0.397 0.145 0.602 0.021 0.128 0.055 0.252 0.171 0.393-0.038-0.311-0.102-0.589-0.107-0.892 0.23 0.128 0.474 0.183 0.627 0.405 0.073 0.102 0.209 0.149 0.316 0.218 0.141 0.085 0.29 0.149 0.435 0.209 0.162 0.068 0.333 0.111 0.525 0.115-0.026-0.094-0.107-0.119-0.166-0.154-0.491-0.256-0.913-0.602-1.306-0.99-0.119-0.119-0.23-0.252-0.346-0.38-0.213-0.235-0.41-0.486-0.674-0.674-0.23-0.166-0.388-0.405-0.58-0.61-0.235-0.252-0.529-0.435-0.777-0.67-0.303-0.29-0.666-0.491-1.020-0.713-0.201-0.128-0.252-0.358-0.311-0.572-0.051-0.179-0.051-0.363 0.004-0.538 0.060-0.188 0.077-0.375 0.077-0.567 0-0.060 0.004-0.115 0.055-0.141s0.090 0.030 0.132 0.060c0.316 0.222 0.491 0.559 0.713 0.862 0.077 0.107 0.149 0.213 0.166 0.35 0.013 0.085 0.077 0.137 0.154 0.175 0.149 0.077 0.294 0.154 0.444 0.226 0.145 0.073 0.26 0.166 0.346 0.307 0.218 0.388 0.508 0.691 0.947 0.853 0.209 0.077 0.384 0.256 0.529 0.439 0.043 0.055 0.060 0.128 0.004 0.179-0.085 0.077-0.085 0.201-0.171 0.277-0.055 0.047-0.013 0.124 0.055 0.111 0.047-0.009 0.102-0.081 0.137-0.111 0.158-0.137 0.273-0.205 0.486-0.213 0.205-0.004 0.384 0.060 0.572 0.141 0.512 0.23 0.862 0.64 1.225 1.041 0.179 0.201 0.35 0.418 0.606 0.538 0.081 0.038 0.115 0.111 0.137 0.192 0.038 0.132 0.119 0.239 0.205 0.35 0.030-0.013 0.064-0.021 0.098-0.030-0.021-0.115-0.107-0.205-0.111-0.316 0.060-0.004 0.094 0.038 0.128 0.064 0.247 0.166 0.469 0.333 0.73 0.444zM13.602 20.407c-0.038-0.090-0.081-0.171-0.175-0.243-0.038-0.077-0.102-0.145-0.196-0.201-0.38-0.235-0.781-0.427-1.165-0.649-0.145-0.085-0.256-0.218-0.367-0.341-0.119-0.132-0.247-0.222-0.397-0.316-0.388-0.247-0.772-0.529-1.109-0.845 0 0 0 0 0 0-0.013-0.090-0.094-0.158-0.179-0.175-0.004 0-0.004 0-0.009 0-0.077-0.149-0.222-0.277-0.371-0.299-0.098-0.013-0.179 0.034-0.247 0.094-0.162 0.141-0.32 0.299-0.491 0.431-0.175 0.137-0.363 0.294-0.555 0.401-0.183 0.102-0.414 0.073-0.61 0.068-0.166-0.004-0.294 0.055-0.405 0.175-0.171 0.183-0.418 0.282-0.576 0.469-0.013 0.017-0.162 0.017-0.192 0.021-0.068 0.017-0.137 0.038-0.196 0.073-0.124 0.064-0.213 0.162-0.32 0.252-0.256 0.213-0.495 0.448-0.734 0.683-0.051 0.051-0.111 0.038-0.145 0.077-0.256 0.26-0.593 0.461-0.708 0.841-0.013 0.043-0.051 0.077-0.026 0.132 0.209-0.183 0.422-0.363 0.627-0.55 0.085-0.077 0.218-0.090 0.303-0.166 0.030-0.026 0.205-0.213 0.252-0.137 0.034 0.055 0.017 0.154-0.030 0.23-0.102 0.162-0.196 0.324-0.32 0.474 0.247-0.107 0.41-0.294 0.542-0.516 0.141-0.243 0.32-0.448 0.563-0.602 0.303-0.192 0.64-0.316 0.943-0.503 0.090-0.055 0.162-0.137 0.26-0.175 0.051 0.009 0.124 0.021 0.175 0.009 0.013 0.009 0.026 0.021 0.038 0.030-0.021 0.055-0.060 0.111-0.098 0.158-0.183 0.222-0.363 0.448-0.559 0.661-0.013 0.017-0.026 0.030-0.034 0.047-0.085 0.060-0.158 0.128-0.218 0.213-0.192 0.175-0.41 0.32-0.572 0.529-0.107 0.137-0.081 0.239 0.090 0.273 0.265 0.051 0.516 0.009 0.734-0.158 0.179-0.132 0.371-0.196 0.593-0.201 0.205-0.004 0.38-0.077 0.538-0.213 0.137-0.119 0.324-0.175 0.444-0.32 0.154-0.183 0.316-0.363 0.375-0.597 0.026-0.102 0.098-0.166 0.158-0.243 0.068-0.085 0.222-0.111 0.311-0.162 0.132-0.081 0.158-0.222 0.179-0.363 0.026-0.201 0.132-0.333 0.265-0.461 0.090-0.085 0.179-0.090 0.26 0.013 0.205 0.269 0.495 0.41 0.785 0.555 0.171 0.085 0.333 0.188 0.457 0.358 0.132 0.179 0.252 0.367 0.375 0.555 0.085 0.132 0.145 0.354 0.273 0.444 0.196 0.137 0.324 0.252 0.452 0.457 0.064 0.107 0.141 0.205 0.265 0.316-0.034-0.38-0.107-0.704-0.393-0.93-0.115-0.094-0.145-0.218-0.175-0.371 0.316 0.107 0.567 0.277 0.802 0.478 0.124 0.107 0.247 0.235 0.388 0.324 0.030 0.128 0.188 0.119 0.252 0.218-0.030-0.043-0.034-0.132-0.055-0.183-0.038-0.051-0.055-0.098-0.073-0.137z"></path>
</symbol>
<symbol id="icon-home" viewBox="0 0 32 32">
<title>home</title>
<path d="M31.599 15.625c0.58-0.638 0.524-1.616-0.125-2.183l-14.301-12.514c-0.649-0.568-1.69-0.556-2.325 0.027l-14.35 13.154c-0.635 0.583-0.667 1.559-0.069 2.18l0.36 0.375c0.597 0.621 1.562 0.695 2.154 0.165l1.072-0.96v14.060c0 0.863 0.699 1.561 1.561 1.561h5.594c0.862 0 1.561-0.698 1.561-1.561v-9.837h7.135v9.837c-0.012 0.862 0.604 1.56 1.466 1.56h5.928c0.862 0 1.561-0.698 1.561-1.561v-13.862c0 0 0.296 0.26 0.662 0.581s1.131 0.064 1.711-0.575l0.407-0.447z"></path>
</symbol>
<symbol id="icon-bed" viewBox="0 0 32 32">
<title>bed</title>
<path d="M28.446 10.082h-16.551c-0.809 0-2.159 0.306-2.159 2.387v3.182h20.868v-3.182c0-2.074-1.35-2.387-2.159-2.387z"></path>
<path d="M5.237 16.342h-3.15v-11.125h-2.087v21.566h2.087v-5.569h27.826v5.563h2.087v-10.434z"></path>
<path d="M8.478 12.867c0 1.61-1.305 2.915-2.915 2.915s-2.915-1.305-2.915-2.915c0-1.61 1.305-2.915 2.915-2.915s2.915 1.305 2.915 2.915z"></path>
</symbol>
<symbol id="icon-camping" viewBox="0 0 32 32">
<title>camping</title>
<path d="M20.9 6.036c-0.12-0.193-0.496-0.361-0.723-0.361h-6.418c-0.228 0-0.236 0.171-0.123 0.369l11.346 19.702c0.113 0.198 0.381 0.21 0.598 0.143l6.188-1.956c0.218-0.067 0.296-0.325 0.176-0.518l-11.044-17.379z"></path>
<path d="M5.517 25.75l5.475-11.686v11.306c0 1.012 1.073 0.954 1.3 0.954h10.669c0.228 0 0.32-0.367 0.208-0.564l-11.023-19.539c-0.113-0.198-0.295-0.198-0.408 0l-2.76 4.847c-0.113 0.198-0.365 0.448-0.564 0.558-2.792 1.549-6.557 3.618-8.226 4.35-0.25 0.11-0.236 0.425-0.041 0.616 0.371 0.363 1.16 1.193 1.888 2.192 0.424 0.581 0.794 1.23 1.098 1.873 0.097 0.206 0.079 0.535-0.034 0.733l-2.371 4.369c-0.112 0.198-0.018 0.564 0.209 0.564h3.982c0.228 0 0.495-0.371 0.599-0.574zM2.333 16.747c-0.102-0.090-0.090-0.211 0.031-0.275 1.175-0.615 6.733-3.532 8.278-4.477 0.117-0.071 0.159-0.034 0.097 0.088l-5.268 10.352c-0.062 0.122-0.133 0.112-0.163-0.022-0.198-0.875-1.002-3.923-2.975-5.667z"></path>
</symbol>
<symbol id="icon-carabiner" viewBox="0 0 32 32">
<title>carabiner</title>
<path d="M28.748 3.262c-0.025-0.025-0.049-0.049-0.074-0.073-2.108-2.069-4.896-3.202-7.851-3.189-2.957 0.013-5.737 1.172-7.828 3.263-0.453 0.453-0.866 0.945-1.234 1.468l3.214 2.665c0.269-0.424 0.588-0.825 0.958-1.195 2.712-2.712 7.099-2.728 9.83-0.047 2.736 2.685 2.784 7.124 0.106 9.866-0.505 0.517-1.070 0.939-1.673 1.265-1.213 0.657-2.389 1.381-3.547 2.13l-3.268 2.112c-1.651 1.067-3.036 2.486-4.129 4.12-0.2 0.299-0.436 0.581-0.708 0.84-1.923 1.83-4.987 1.809-6.886-0.045-1.866-1.821-1.988-4.741-0.368-6.707 0.070-0.085 0.563-0.709 1.209-1.529l-3.199-2.653c-0.736 0.934-1.113 1.411-1.222 1.546-1.428 1.736-2.161 3.931-2.064 6.182 0.097 2.27 1.032 4.409 2.63 6.023 0 0 0.032 0.032 0.032 0.032 1.686 1.686 3.935 2.632 6.331 2.663 2.399 0.031 4.673-0.858 6.402-2.504 0.488-0.464 0.924-0.982 1.297-1.539 0.818-1.223 1.804-2.212 2.93-2.94l3.356-2.168c1.095-0.708 2.222-1.364 3.358-2.004 0.912-0.514 1.746-1.156 2.491-1.92 4.243-4.342 4.201-11.368-0.093-15.662z"></path>
<path d="M12.099 13.124l-5.161-4.28-3.564 4.335 5.161 4.28z"></path>
<path d="M14.874 9.748l-5.161-4.28-1.585 1.928 5.161 4.28z"></path>
</symbol>
<symbol id="icon-climbing" viewBox="0 0 32 32">
<title>climbing</title>
<path d="M6.307 5.7c2.006-1.593 1.255-4.974-1.249-5.601-2.217-0.557-4.274 1.32-3.93 3.587 0.366 2.413 3.258 3.537 5.178 2.013z"></path>
<path d="M8.38 7.579c-0.392-0.775-1.36-1.132-2.162-0.798l-3.062 1.279c-0.552 0.231-0.884 0.735-0.922 1.283l-0.011-0.021c0 0-1.283 3.673 0 6.098 0.892 1.687 2.857 2.538 3.973 2.9l0.444 0.952c0.014 0.030 0.034 0.055 0.049 0.083l0.030 0.064 0.006-0.003c0.303 0.527 0.819 0.869 1.394 0.96-0.361 2.027-0.218 4.987 2.606 7.406 0.074 0.064 0.165 0.095 0.256 0.095 0.11 0 0.221-0.046 0.298-0.137 0.142-0.165 0.123-0.413-0.043-0.555-2.651-2.273-2.705-5.025-2.334-6.845 0.044-0.011 0.087-0.016 0.131-0.029l7.742-2.524 8.758 5.547c0.222 0.14 0.46 0.226 0.703 0.27l2.009 5.624c0.293 0.819 1.002 1.93 1.584 2.481s1.056 0.294 1.057-0.574l0.023-26.867c0-0.968-0.778-1.745-1.744-1.745h-17.937c-0.213-0.306-0.567-0.507-0.967-0.507h-0.984c-0.386 0-0.748 0.189-0.969 0.506s-0.273 0.721-0.138 1.084l2.035 5.501-0.994 0.114-0.83-1.643zM18.809 6.791c0.845 0.206 1.621 1.066 1.734 1.92s0.88 1.75 1.712 2.002l4 1.208c0.832 0.251 1.698 1.041 1.932 1.763s0.14 1.952-0.212 2.747l-1.312 2.962-8.564-5.424c-0.498-0.314-1.105-0.391-1.663-0.209l-3.451 1.125c1.376-1.405 3.844-4.478 3.989-8.541l1.835 0.447zM11.969 11.282c0.361-0.042 0.681-0.246 0.871-0.555s0.227-0.688 0.101-1.028l-1.764-4.768 5.014 1.221c-0.082 4.363-3.071 7.553-4.186 8.593l-1.657-3.279 1.621-0.185z"></path>
</symbol>
<symbol id="icon-speech-bubble" viewBox="0 0 32 32">
<title>speech-bubble</title>
<path d="M4.659 30.087h-2.267l1.603-1.603c0.864-0.864 1.404-1.989 1.549-3.209-3.702-2.429-5.544-5.949-5.544-9.639 0-6.807 6.256-13.724 16.054-13.724 10.38 0 15.946 6.365 15.946 13.128 0 6.807-5.625 13.168-15.946 13.168-1.808 0-3.695-0.241-5.379-0.684-1.595 1.635-3.755 2.563-6.016 2.563z"></path>
</symbol>
<symbol id="icon-restaurant" viewBox="0 0 32 32">
<title>restaurant</title>
<path d="M16.167 8.635l-1.211-8.067c-0.048-0.328-0.329-0.568-0.659-0.568-0.007 0-0.015 0-0.023 0-0.339 0.011-0.615 0.273-0.641 0.611l-0.584 7.004c-0.036 0.432-0.803 0.432-0.839 0l-0.583-7.004c-0.029-0.345-0.317-0.611-0.664-0.611s-0.636 0.265-0.664 0.611l-0.584 7.004c-0.036 0.432-0.803 0.432-0.839 0l-0.583-7.004c-0.028-0.336-0.304-0.599-0.643-0.611-0.008 0-0.015 0-0.021 0-0.329 0-0.611 0.24-0.659 0.568l-1.209 8.067c-0.356 2.364 0.927 4.625 3.089 5.568l-1.029 14.427c-0.061 0.868 0.243 1.731 0.836 2.368 0.592 0.637 1.431 1.003 2.303 1.003h0.005c0.871 0 1.711-0.365 2.304-1.003s0.897-1.5 0.836-2.368l-1.029-14.427c2.163-0.943 3.445-3.204 3.089-5.568z"></path>
<path d="M26.015 0.123c-0.176-0.125-0.403-0.155-0.607-0.084-0.057 0.020-5.777 2.121-5.777 8.628 0 4.684 1.524 7.049 2.381 8.009l-0.853 0.853c-0.109 0.109-0.177 0.252-0.192 0.405l-1.055 10.548c-0.091 0.897 0.204 1.796 0.809 2.465s1.473 1.052 2.375 1.052c1.764 0 3.2-1.436 3.2-3.2v-28.133c0.001-0.217-0.104-0.419-0.281-0.544z"></path>
</symbol>
<symbol id="icon-telephone" viewBox="0 0 32 32">
<title>telephone</title>
<path d="M31.175 23.611l-3.977-3.978c-1.061-1.061-2.915-1.063-3.978 0l-0.663 0.663 7.955 7.955 0.663-0.663c1.101-1.101 1.097-2.881 0-3.977z"></path>
<path d="M21.195 21.586c-0.837 0.648-2.031 0.622-2.795-0.144l-7.864-7.869c-0.766-0.766-0.792-1.961-0.144-2.796l-7.937-7.936c-3.414 3.98-3.281 9.977 0.487 13.745l12.444 12.449c3.616 3.616 9.54 4.096 13.746 0.487l-7.937-7.937z"></path>
<path d="M12.344 4.774l-3.977-3.978c-1.061-1.061-2.915-1.063-3.978 0l-0.663 0.663 7.955 7.955 0.663-0.663c1.101-1.101 1.098-2.881 0-3.977z"></path>
</symbol>
<symbol id="icon-book" viewBox="0 0 32 32">
<title>book</title>
<path d="M28 4v26h-21c-1.657 0-3-1.343-3-3s1.343-3 3-3h19v-24h-20c-2.2 0-4 1.8-4 4v24c0 2.2 1.8 4 4 4h24v-28h-2z"></path>
<path d="M7.002 26v0c-0.001 0-0.001 0-0.002 0-0.552 0-1 0.448-1 1s0.448 1 1 1c0.001 0 0.001-0 0.002-0v0h18.997v-2h-18.997z"></path>
</symbol>
<symbol id="icon-star-full" viewBox="0 0 32 32">
<title>star-full</title>
<path d="M32 12.408l-11.056-1.607-4.944-10.018-4.944 10.018-11.056 1.607 8 7.798-1.889 11.011 9.889-5.199 9.889 5.199-1.889-11.011 8-7.798z"></path>
</symbol>
<symbol id="icon-coin-dollar" viewBox="0 0 32 32">
<title>coin-dollar</title>
<path d="M15 2c-8.284 0-15 6.716-15 15s6.716 15 15 15c8.284 0 15-6.716 15-15s-6.716-15-15-15zM15 29c-6.627 0-12-5.373-12-12s5.373-12 12-12c6.627 0 12 5.373 12 12s-5.373 12-12 12zM16 16v-4h4v-2h-4v-2h-2v2h-4v8h4v4h-4v2h4v2h2v-2h4l-0-8h-4zM14 16h-2v-4h2v4zM18 22h-2v-4h2v4z"></path>
</symbol>
<symbol id="icon-info" viewBox="0 0 32 32">
<title>info</title>
<path d="M14 9.5c0-0.825 0.675-1.5 1.5-1.5h1c0.825 0 1.5 0.675 1.5 1.5v1c0 0.825-0.675 1.5-1.5 1.5h-1c-0.825 0-1.5-0.675-1.5-1.5v-1z"></path>
<path d="M20 24h-8v-2h2v-6h-2v-2h6v8h2z"></path>
<path d="M16 0c-8.837 0-16 7.163-16 16s7.163 16 16 16 16-7.163 16-16-7.163-16-16-16zM16 29c-7.18 0-13-5.82-13-13s5.82-13 13-13 13 5.82 13 13-5.82 13-13 13z"></path>
</symbol>
<symbol id="icon-question" viewBox="0 0 32 32">
<title>question</title>
<path d="M14 22h4v4h-4zM22 8c1.105 0 2 0.895 2 2v6l-6 4h-4v-2l6-4v-2h-10v-4h12zM16 3c-3.472 0-6.737 1.352-9.192 3.808s-3.808 5.72-3.808 9.192c0 3.472 1.352 6.737 3.808 9.192s5.72 3.808 9.192 3.808c3.472 0 6.737-1.352 9.192-3.808s3.808-5.72 3.808-9.192c0-3.472-1.352-6.737-3.808-9.192s-5.72-3.808-9.192-3.808zM16 0v0c8.837 0 16 7.163 16 16s-7.163 16-16 16c-8.837 0-16-7.163-16-16s7.163-16 16-16z"></path>
</symbol>
</defs>
</svg>
