<svg aria-hidden="true" style="position: absolute; width: 0; height: 0; overflow: hidden;" version="1.1" xmlns="http://www.w3.org/2000/svg" xmlns:xlink="http://www.w3.org/1999/xlink">
<defs>
<symbol id="icon-mountain" viewBox="0 0 500 500">
<title>mountain</title>
<path d="M351.56 265.63L453.13 437.5L250 437.5L46.88 437.5L148.43 265.63L250 93.75L351.56 265.63Z" id="cF9r56usF"></path>
<path d="M227.12 194.09L238.28 183.51L250.89 202.68L265.63 199.26L274.01 202.68L301.56 210.9L250.89 125L200.52 213.63L227.12 194.09Z" id="baiMAOmqi"></path>
<path d="M211.69 320.31L282.25 437.5L141.12 437.5L0 437.5L70.56 320.31L141.12 203.12L211.69 320.31Z" id="a4xgfcmRMc"></path>
<path d="M443.47 343.75L502.75 437.5L384.19 437.5L265.63 437.5L324.9 343.75L384.19 250L443.47 343.75Z" id="eKZ47gs0J"></path>
</symbol>
<symbol id="icon-phone" viewBox="0 0 512.001 512.001" style="enable-background:new 0 0 512.001 512.001;" xml:space="preserve">
<title>contact-us</title>
<path d="M498.808,377.784l-63.633-63.647c-16.978-16.978-46.641-17.007-63.647,0l-10.611,10.611l127.284,127.277l10.607-10.607
            C516.427,423.798,516.368,395.314,498.808,377.784z"/>
<path d="M339.116,345.37c-13.39,10.373-32.492,9.959-44.727-2.303L168.572,217.163c-12.263-12.263-12.676-31.379-2.303-44.736
            L39.278,45.443c-54.631,63.68-52.495,159.633,7.8,219.928l199.103,199.19c57.86,57.858,152.635,65.532,219.932,7.797
            L339.116,345.37z"/>
<path d="M197.503,76.391L133.87,12.744c-16.978-16.978-46.641-17.007-63.647,0L59.612,23.355l127.284,127.277l10.607-10.608
            C215.121,122.406,215.063,93.922,197.503,76.391z"/>
</symbol>
<symbol id="icon-home" viewBox="0 0 32 32">
<title>home</title>
<path d="M31.599 15.625c0.58-0.638 0.524-1.616-0.125-2.183l-14.301-12.514c-0.649-0.568-1.69-0.556-2.325 0.027l-14.35 13.154c-0.635 0.583-0.667 1.559-0.069 2.18l0.36 0.375c0.597 0.621 1.562 0.695 2.154 0.165l1.072-0.96v14.060c0 0.863 0.699 1.561 1.561 1.561h5.594c0.862 0 1.561-0.698 1.561-1.561v-9.837h7.135v9.837c-0.012 0.862 0.604 1.56 1.466 1.56h5.928c0.862 0 1.561-0.698 1.561-1.561v-13.862c0 0 0.296 0.26 0.662 0.581s1.131 0.064 1.711-0.575l0.407-0.447z"></path>
</symbol>
<symbol id="icon-bed" viewBox="0 0 32 32">
<title>bed</title>
<path d="M28.446 10.082h-16.551c-0.809 0-2.159 0.306-2.159 2.387v3.182h20.868v-3.182c0-2.074-1.35-2.387-2.159-2.387z"></path>
<path d="M5.237 16.342h-3.15v-11.125h-2.087v21.566h2.087v-5.569h27.826v5.563h2.087v-10.434z"></path>
<path d="M8.478 12.867c0 1.61-1.305 2.915-2.915 2.915s-2.915-1.305-2.915-2.915c0-1.61 1.305-2.915 2.915-2.915s2.915 1.305 2.915 2.915z"></path>
</symbol>
<symbol id="icon-camping" viewBox="0 0 32 32">
<title>camping</title>
<path d="M20.9 6.036c-0.12-0.193-0.496-0.361-0.723-0.361h-6.418c-0.228 0-0.236 0.171-0.123 0.369l11.346 19.702c0.113 0.198 0.381 0.21 0.598 0.143l6.188-1.956c0.218-0.067 0.296-0.325 0.176-0.518l-11.044-17.379z"></path>
<path d="M5.517 25.75l5.475-11.686v11.306c0 1.012 1.073 0.954 1.3 0.954h10.669c0.228 0 0.32-0.367 0.208-0.564l-11.023-19.539c-0.113-0.198-0.295-0.198-0.408 0l-2.76 4.847c-0.113 0.198-0.365 0.448-0.564 0.558-2.792 1.549-6.557 3.618-8.226 4.35-0.25 0.11-0.236 0.425-0.041 0.616 0.371 0.363 1.16 1.193 1.888 2.192 0.424 0.581 0.794 1.23 1.098 1.873 0.097 0.206 0.079 0.535-0.034 0.733l-2.371 4.369c-0.112 0.198-0.018 0.564 0.209 0.564h3.982c0.228 0 0.495-0.371 0.599-0.574zM2.333 16.747c-0.102-0.090-0.090-0.211 0.031-0.275 1.175-0.615 6.733-3.532 8.278-4.477 0.117-0.071 0.159-0.034 0.097 0.088l-5.268 10.352c-0.062 0.122-0.133 0.112-0.163-0.022-0.198-0.875-1.002-3.923-2.975-5.667z"></path>
</symbol>
<symbol id="icon-carabiner" viewBox="0 0 32 32">
<title>carabiner</title>
<path d="M28.748 3.262c-0.025-0.025-0.049-0.049-0.074-0.073-2.108-2.069-4.896-3.202-7.851-3.189-2.957 0.013-5.737 1.172-7.828 3.263-0.453 0.453-0.866 0.945-1.234 1.468l3.214 2.665c0.269-0.424 0.588-0.825 0.958-1.195 2.712-2.712 7.099-2.728 9.83-0.047 2.736 2.685 2.784 7.124 0.106 9.866-0.505 0.517-1.070 0.939-1.673 1.265-1.213 0.657-2.389 1.381-3.547 2.13l-3.268 2.112c-1.651 1.067-3.036 2.486-4.129 4.12-0.2 0.299-0.436 0.581-0.708 0.84-1.923 1.83-4.987 1.809-6.886-0.045-1.866-1.821-1.988-4.741-0.368-6.707 0.070-0.085 0.563-0.709 1.209-1.529l-3.199-2.653c-0.736 0.934-1.113 1.411-1.222 1.546-1.428 1.736-2.161 3.931-2.064 6.182 0.097 2.27 1.032 4.409 2.63 6.023 0 0 0.032 0.032 0.032 0.032 1.686 1.686 3.935 2.632 6.331 2.663 2.399 0.031 4.673-0.858 6.402-2.504 0.488-0.464 0.924-0.982 1.297-1.539 0.818-1.223 1.804-2.212 2.93-2.94l3.356-2.168c1.095-0.708 2.222-1.364 3.358-2.004 0.912-0.514 1.746-1.156 2.491-1.92 4.243-4.342 4.201-11.368-0.093-15.662z"></path>
<path d="M12.099 13.124l-5.161-4.28-3.564 4.335 5.161 4.28z"></path>
<path d="M14.874 9.748l-5.161-4.28-1.585 1.928 5.161 4.28z"></path>
</symbol>
<symbol id="icon-climbing" viewBox="0 0 32 32">
<title>climbing</title>
<path d="M6.307 5.7c2.006-1.593 1.255-4.974-1.249-5.601-2.217-0.557-4.274 1.32-3.93 3.587 0.366 2.413 3.258 3.537 5.178 2.013z"></path>
<path d="M8.38 7.579c-0.392-0.775-1.36-1.132-2.162-0.798l-3.062 1.279c-0.552 0.231-0.884 0.735-0.922 1.283l-0.011-0.021c0 0-1.283 3.673 0 6.098 0.892 1.687 2.857 2.538 3.973 2.9l0.444 0.952c0.014 0.030 0.034 0.055 0.049 0.083l0.030 0.064 0.006-0.003c0.303 0.527 0.819 0.869 1.394 0.96-0.361 2.027-0.218 4.987 2.606 7.406 0.074 0.064 0.165 0.095 0.256 0.095 0.11 0 0.221-0.046 0.298-0.137 0.142-0.165 0.123-0.413-0.043-0.555-2.651-2.273-2.705-5.025-2.334-6.845 0.044-0.011 0.087-0.016 0.131-0.029l7.742-2.524 8.758 5.547c0.222 0.14 0.46 0.226 0.703 0.27l2.009 5.624c0.293 0.819 1.002 1.93 1.584 2.481s1.056 0.294 1.057-0.574l0.023-26.867c0-0.968-0.778-1.745-1.744-1.745h-17.937c-0.213-0.306-0.567-0.507-0.967-0.507h-0.984c-0.386 0-0.748 0.189-0.969 0.506s-0.273 0.721-0.138 1.084l2.035 5.501-0.994 0.114-0.83-1.643zM18.809 6.791c0.845 0.206 1.621 1.066 1.734 1.92s0.88 1.75 1.712 2.002l4 1.208c0.832 0.251 1.698 1.041 1.932 1.763s0.14 1.952-0.212 2.747l-1.312 2.962-8.564-5.424c-0.498-0.314-1.105-0.391-1.663-0.209l-3.451 1.125c1.376-1.405 3.844-4.478 3.989-8.541l1.835 0.447zM11.969 11.282c0.361-0.042 0.681-0.246 0.871-0.555s0.227-0.688 0.101-1.028l-1.764-4.768 5.014 1.221c-0.082 4.363-3.071 7.553-4.186 8.593l-1.657-3.279 1.621-0.185z"></path>
</symbol>
<symbol id="icon-speech-bubble" viewBox="0 0 32 32">
<title>speech-bubble</title>
<path d="M4.659 30.087h-2.267l1.603-1.603c0.864-0.864 1.404-1.989 1.549-3.209-3.702-2.429-5.544-5.949-5.544-9.639 0-6.807 6.256-13.724 16.054-13.724 10.38 0 15.946 6.365 15.946 13.128 0 6.807-5.625 13.168-15.946 13.168-1.808 0-3.695-0.241-5.379-0.684-1.595 1.635-3.755 2.563-6.016 2.563z"></path>
</symbol>
<symbol id="icon-restaurant" viewBox="0 0 32 32">
<title>restaurant</title>
<path d="M16.167 8.635l-1.211-8.067c-0.048-0.328-0.329-0.568-0.659-0.568-0.007 0-0.015 0-0.023 0-0.339 0.011-0.615 0.273-0.641 0.611l-0.584 7.004c-0.036 0.432-0.803 0.432-0.839 0l-0.583-7.004c-0.029-0.345-0.317-0.611-0.664-0.611s-0.636 0.265-0.664 0.611l-0.584 7.004c-0.036 0.432-0.803 0.432-0.839 0l-0.583-7.004c-0.028-0.336-0.304-0.599-0.643-0.611-0.008 0-0.015 0-0.021 0-0.329 0-0.611 0.24-0.659 0.568l-1.209 8.067c-0.356 2.364 0.927 4.625 3.089 5.568l-1.029 14.427c-0.061 0.868 0.243 1.731 0.836 2.368 0.592 0.637 1.431 1.003 2.303 1.003h0.005c0.871 0 1.711-0.365 2.304-1.003s0.897-1.5 0.836-2.368l-1.029-14.427c2.163-0.943 3.445-3.204 3.089-5.568z"></path>
<path d="M26.015 0.123c-0.176-0.125-0.403-0.155-0.607-0.084-0.057 0.020-5.777 2.121-5.777 8.628 0 4.684 1.524 7.049 2.381 8.009l-0.853 0.853c-0.109 0.109-0.177 0.252-0.192 0.405l-1.055 10.548c-0.091 0.897 0.204 1.796 0.809 2.465s1.473 1.052 2.375 1.052c1.764 0 3.2-1.436 3.2-3.2v-28.133c0.001-0.217-0.104-0.419-0.281-0.544z"></path>
</symbol>
<symbol id="icon-telephone" viewBox="0 0 32 32">
<title>telephone</title>
<path d="M31.175 23.611l-3.977-3.978c-1.061-1.061-2.915-1.063-3.978 0l-0.663 0.663 7.955 7.955 0.663-0.663c1.101-1.101 1.097-2.881 0-3.977z"></path>
<path d="M21.195 21.586c-0.837 0.648-2.031 0.622-2.795-0.144l-7.864-7.869c-0.766-0.766-0.792-1.961-0.144-2.796l-7.937-7.936c-3.414 3.98-3.281 9.977 0.487 13.745l12.444 12.449c3.616 3.616 9.54 4.096 13.746 0.487l-7.937-7.937z"></path>
<path d="M12.344 4.774l-3.977-3.978c-1.061-1.061-2.915-1.063-3.978 0l-0.663 0.663 7.955 7.955 0.663-0.663c1.101-1.101 1.098-2.881 0-3.977z"></path>
</symbol>
</defs>
</svg>
