<svg aria-hidden="true" style="position: absolute; width: 0; height: 0; overflow: hidden;" version="1.1" xmlns="http://www.w3.org/2000/svg" xmlns:xlink="http://www.w3.org/1999/xlink">
<defs>
<symbol id="icon-mountain" viewBox="0 0 500 500">
<title>mountain</title>
<path d="M351.56 265.63L453.13 437.5L250 437.5L46.88 437.5L148.43 265.63L250 93.75L351.56 265.63Z" id="cF9r56usF"></path>
<path d="M227.12 194.09L238.28 183.51L250.89 202.68L265.63 199.26L274.01 202.68L301.56 210.9L250.89 125L200.52 213.63L227.12 194.09Z" id="baiMAOmqi"></path>
<path d="M211.69 320.31L282.25 437.5L141.12 437.5L0 437.5L70.56 320.31L141.12 203.12L211.69 320.31Z" id="a4xgfcmRMc"></path>
<path d="M443.47 343.75L502.75 437.5L384.19 437.5L265.63 437.5L324.9 343.75L384.19 250L443.47 343.75Z" id="eKZ47gs0J"></path>
</symbol>
<symbol id="icon-phone" viewBox="0 0 512.001 512.001" style="enable-background:new 0 0 512.001 512.001;" xml:space="preserve">
<title>contact-us</title>
<path d="M498.808,377.784l-63.633-63.647c-16.978-16.978-46.641-17.007-63.647,0l-10.611,10.611l127.284,127.277l10.607-10.607
            C516.427,423.798,516.368,395.314,498.808,377.784z"/>
<path d="M339.116,345.37c-13.39,10.373-32.492,9.959-44.727-2.303L168.572,217.163c-12.263-12.263-12.676-31.379-2.303-44.736
            L39.278,45.443c-54.631,63.68-52.495,159.633,7.8,219.928l199.103,199.19c57.86,57.858,152.635,65.532,219.932,7.797
            L339.116,345.37z"/>
<path d="M197.503,76.391L133.87,12.744c-16.978-16.978-46.641-17.007-63.647,0L59.612,23.355l127.284,127.277l10.607-10.608
            C215.121,122.406,215.063,93.922,197.503,76.391z"/>
</symbol>
<symbol id="icon-mountain-outline" viewBox="0 0 32 32">
<title>Mountain</title>
<path d="M10.987 20.254c0.051 0.154 0.205 0.26 0.188 0.457-0.141-0.043-0.256-0.098-0.316-0.239-0.055-0.132-0.132-0.256-0.192-0.384-0.098-0.213-0.149-0.452-0.282-0.653-0.107-0.162-0.119-0.337-0.137-0.521-0.004-0.034-0.013-0.081 0.030-0.090 0.038-0.009 0.085 0.047 0.137 0.128 0.102 0.171 0.209 0.452 0.239 0.512 0.128 0.26 0.243 0.521 0.333 0.789zM29.952 20.305c-0.026-0.060-0.047-0.124-0.060-0.188-0.243-0.183-0.482-0.367-0.751-0.516-0.128-0.073-0.247-0.158-0.358-0.252 0-0.017-0.004-0.034-0.021-0.051-0.128-0.145-0.26-0.286-0.388-0.431-0.094-0.158-0.226-0.29-0.371-0.397-0.23-0.171-0.444-0.35-0.636-0.555-0.252-0.269-0.55-0.38-0.913-0.341-0.196 0.021-0.341-0.073-0.422-0.239-0.115-0.235-0.324-0.41-0.533-0.555-0.192-0.132-0.478-0.256-0.61-0.448-0.055-0.077-0.132-0.141-0.175-0.23-0.132-0.265-0.367-0.384-0.627-0.491-0.111-0.043-0.192-0.128-0.26-0.218-0.077-0.098-0.158-0.179-0.243-0.273-0.081-0.085-0.107-0.218-0.183-0.316-0.090-0.115-0.201-0.213-0.316-0.303-0.183-0.145-0.367-0.29-0.521-0.465-0.111-0.128-0.209-0.209-0.371-0.111-0.132 0.081-0.26 0.171-0.375 0.273-0.051 0.047-0.102 0.094-0.145 0.145-0.038 0.047-0.068 0.141-0.115 0.179-0.235 0.196-0.521 0.333-0.755 0.529-0.077 0.064-0.166 0.043-0.218-0.051-0.154-0.273-0.371-0.491-0.585-0.713-0.047-0.051-0.102-0.094-0.158-0.128-0.179-0.102-0.32-0.247-0.55-0.218-0.009-0.009-0.013-0.013-0.021-0.021-0.29-0.26-0.533-0.563-0.798-0.845-0.064-0.068-0.107-0.158-0.166-0.23-0.107-0.132-0.26-0.196-0.41-0.269-0.282-0.128-0.529-0.32-0.777-0.503-0.367-0.269-0.691-0.572-0.909-0.981-0.102-0.188-0.252-0.192-0.418-0.030-0.29 0.282-0.555 0.589-0.806 0.905-0.149 0.188-0.32 0.35-0.512 0.491-0.043 0.030-0.081 0.064-0.124 0.098-0.222 0.111-0.41 0.269-0.559 0.474-0.009 0.013-0.013 0.026-0.013 0.038-0.183 0.162-0.35 0.324-0.486 0.521-0.222 0.316-0.448 0.631-0.653 0.956-0.218 0.346-0.533 0.597-0.815 0.879-0.188 0.188-0.401 0.358-0.636 0.495-0.141 0.081-0.273 0.068-0.41-0.030-0.060-0.043-0.124-0.090-0.188-0.128 0-0.021-0.009-0.043-0.034-0.060-0.188-0.128-0.405-0.256-0.58-0.41-0.183-0.166-0.367-0.333-0.55-0.499-0.124-0.111-0.286-0.333-0.478-0.307-0.077 0.013-0.252 0.064-0.29 0.141-0.034 0.068-0.051 0.141-0.085 0.209-0.077 0.154-0.179 0.286-0.316 0.384-0.32 0.243-0.576 0.559-0.866 0.832-0.316 0.294-0.704 0.478-1.050 0.738-0.077 0.017-0.128 0.111-0.209 0.124-0.162 0.026-0.316 0.102-0.457 0.196-0.235 0.162-0.29 0.452-0.486 0.644-0.055 0.051-0.102 0.111-0.162 0.158-0.047 0.038-0.115 0.064-0.158 0.107-0.098 0.081-0.196 0.158-0.299 0.235-0.192 0.149-0.384 0.26-0.597 0.371-0.397 0.213-0.764 0.452-0.998 0.853-0.149 0.256-0.341 0.482-0.508 0.725-0.137 0.196-0.252 0.41-0.422 0.597 0.034 0.017 0.047 0.030 0.055 0.026 0.311-0.115 0.631-0.077 0.947-0.060 0.277 0.013 0.474-0.124 0.683-0.294 0.183-0.149 0.418-0.282 0.623-0.393 0.081-0.047 0.192-0.068 0.269-0.119 0.073-0.047 0.115-0.141 0.183-0.196 0.149-0.119 0.243-0.277 0.337-0.444 0.043-0.081 0.132-0.119 0.226-0.137 0.213-0.034 0.35-0.162 0.444-0.354 0.107-0.213 0.286-0.371 0.474-0.512 0.077-0.060 0.162-0.149 0.252-0.179 0.128-0.043 0.294-0.026 0.427-0.047 0.341-0.051 0.627-0.252 0.87-0.491 0.26-0.26 0.512-0.521 0.666-0.87 0.030-0.073 0.132-0.158 0.222-0.226 0.235-0.171 0.457-0.358 0.41-0.704-0.013-0.098 0.017-0.196 0.038-0.294 0.064-0.017 0.119-0.055 0.132-0.128 0-0.004 0-0.009 0-0.013 0.047-0.060 0.081-0.038 0.205 0.043 0.004 0.004 0.009 0.004 0.013 0.009 0.085 0.090 0.183 0.162 0.286 0.226 0.388 0.329 0.785 0.64 1.259 0.849 0.277 0.124 0.469 0.337 0.512 0.657 0.021 0.175 0.115 0.329 0.201 0.478 0.047 0.085 0.055 0.265 0.171 0.286 0.030 0.004 0.068 0.009 0.090 0.030 0.017 0.017 0.021 0.043 0.026 0.068 0.038 0.179 0.183 0.265 0.32 0.371 0.435 0.337 0.742 0.883 1.254 1.114 0.256 0.115 0.469 0.303 0.683 0.486 0.371 0.316 0.759 0.678 1.212 0.87 0.064 0.026 0.154 0.098 0.201 0.021 0.043-0.068-0.017-0.154-0.077-0.213-0.102-0.098-0.205-0.196-0.311-0.286-0.094-0.077-0.132-0.179-0.162-0.294-0.034-0.137 0.009-0.218 0.098-0.324 0.111-0.128 0.154-0.277 0.205-0.439 0.030-0.102 0.090-0.192 0.183-0.252 0.102-0.064 0.226-0.068 0.324-0.137 0.239-0.166 0.371-0.563 0.388-0.841 0.017-0.29 0.047-0.58 0.060-0.87 0.004-0.081 0.034-0.166 0.111-0.205 0.051-0.030 0.115-0.038 0.171-0.051 0.201-0.051 0.124-0.239 0.158-0.38-0.017 0.064 0.115 0.009 0.124 0 0.102-0.060 0.192-0.196 0.32-0.205 0.119-0.009 0.196 0.115 0.26 0.201 0.111 0.149 0.23 0.29 0.384 0.401 0.329 0.243 0.58 0.55 0.687 0.951 0.021 0.077 0.077 0.209 0.111 0.282 0.137 0.282 0.243 0.576 0.397 0.849 0.021 0.043 0.213 0.358 0.32 0.367 0.034 0.004 0.055-0.004 0.055-0.047-0.009-0.158-0.132-0.252-0.209-0.375-0.017-0.030-0.038-0.145-0.073-0.247-0.119-0.384-0.265-0.755-0.457-1.114-0.051-0.094-0.060-0.222-0.115-0.324-0.098-0.183-0.269-0.311-0.41-0.457-0.277-0.29-0.508-0.589-0.448-1.024 0.055-0.017 0.081 0.034 0.119 0.064 0.26 0.183 0.533 0.358 0.823 0.491 0.137 0.060 0.256 0.102 0.38 0.192 0.179 0.132 0.32 0.303 0.495 0.439 0.162 0.124 0.333 0.239 0.439 0.418 0.094 0.162 0.252 0.277 0.375 0.414 0.111 0.124 0.149 0.286 0.209 0.435 0.030 0.077 0.064 0.149 0.119 0.213 0.154 0.188 0.141 0.444 0.226 0.661 0.047 0.124 0.055 0.277 0.141 0.388s0.158 0.239 0.213 0.367c0.055 0.128 0.077 0.286 0.188 0.375 0.047 0.038 0.098 0.073 0.145 0.111 0.030 0.081 0.085 0.158 0.149 0.239 0.030-0.32-0.128-0.606-0.265-0.879-0.183-0.367-0.213-0.772-0.282-1.173 0.090 0 0.149 0.043 0.201 0.085 0.303 0.23 0.631 0.435 0.828 0.777 0.043 0.073 0.119 0.111 0.192 0.141 0.171 0.068 0.307 0.166 0.405 0.324 0.064 0.102 0.145 0.158 0.252 0.196 0.128 0.047 0.247 0.115 0.375 0.166 0.158 0.060 0.316 0.064 0.469-0.009 0.051-0.021 0.034-0.102-0.038-0.132-0.115-0.051-0.226-0.111-0.346-0.149-0.166-0.055-0.303-0.154-0.401-0.282-0.154-0.209-0.358-0.35-0.563-0.495-0.235-0.166-0.431-0.375-0.55-0.636-0.094-0.201-0.239-0.303-0.435-0.367-0.128-0.043-0.26-0.081-0.371-0.154-0.503-0.452-0.892-1.020-1.417-1.455-0.286-0.239-0.589-0.482-0.947-0.64-0.277-0.119-0.559-0.239-0.751-0.495-0.004-0.004-0.009-0.009-0.013-0.013s-0.004-0.009-0.009-0.013c-0.026-0.034-0.055-0.064-0.085-0.085-0.004-0.004-0.004-0.004-0.009-0.009-0.111-0.111-0.243-0.201-0.397-0.247-0.162-0.055-0.41 0.073-0.508 0.256-0.009 0.017-0.009 0.043-0.021 0.055-0.188 0.175-0.311 0.401-0.482 0.593-0.201 0.222-0.444 0.26-0.695 0.397-0.183 0.102-0.286 0.324-0.427 0.478-0.171 0.192-0.324 0.397-0.393 0.649-0.021 0.090-0.085 0.158-0.154 0.218-0.124 0.119-0.265 0.209-0.418 0.286-0.055 0.026-0.115 0.055-0.149 0.102-0.171 0.218-0.439 0.282-0.653 0.435-0.090 0.064-0.162 0.055-0.247-0.038-0.119-0.132-0.277-0.222-0.346-0.405-0.038-0.098-0.060-0.154-0.038-0.188 0.145-0.030 0.282-0.073 0.418-0.137 0.060-0.026 0.043-0.094 0-0.124 0.201-0.337 0.397-0.653 0.474-1.020s0.055-0.751 0.149-1.118c0.047-0.188 0.115-0.354 0.286-0.482 0.158-0.115 0.243-0.307 0.358-0.465 0.038-0.051 0.038-0.119 0.034-0.188-0.021-0.294 0.009-0.64 0.265-0.828 0.162-0.124 0.29-0.29 0.363-0.482 0.077-0.201 0.055-0.414 0.205-0.585 0.137-0.154 0.247-0.32 0.286-0.525 0.017-0.085 0.081-0.145 0.145-0.183 0.141-0.085 0.401 0.273 0.491 0.35 0.294 0.256 0.619 0.486 0.939 0.708 0.124 0.085 0.265 0.154 0.397 0.23 0.192 0.107 0.307 0.32 0.448 0.482 0.064 0.077 0.060 0.132-0.047 0.128-0.277-0.013-0.499 0.141-0.742 0.243-0.068 0.030-0.137 0.064-0.166 0.166 0.141-0.017 0.269-0.026 0.397-0.047 0.154-0.030 0.299 0.026 0.444 0.068 0.158 0.047 0.316 0.047 0.478 0.064 0.346 0.038 0.742 0.119 0.977 0.388 0.239 0.273 0.444 0.572 0.631 0.879 0.162 0.26 0.337 0.516 0.508 0.768 0.026 0.038 0.064 0.102 0.115 0.077s0.021-0.090 0.013-0.137c-0.009-0.055-0.026-0.107-0.017-0.175 0.26 0.055 0.478 0.183 0.644 0.367 0.41 0.457 0.777 0.947 1.152 1.429 0.094 0.119 0.137 0.247 0.179 0.38 0.047 0.141 0.107 0.273 0.209 0.384 0.154 0.166 0.235 0.375 0.358 0.559 0.030 0.043 0.047 0.090 0.115 0.090 0.030-0.068 0.021-0.158-0.009-0.201-0.145-0.209-0.145-0.461-0.213-0.691-0.026-0.090-0.034-0.145-0.013-0.183 0.068 0.009 0.137 0.013 0.209 0.021 0.23 0.111 0.448 0.247 0.691 0.337 0.171 0.060 0.32 0.149 0.444 0.282 0.145 0.154 0.316 0.269 0.491 0.375 0.047 0.030 0.060 0.115 0.085 0.175 0.081 0.192 0.111 0.397 0.145 0.602 0.021 0.128 0.055 0.252 0.171 0.393-0.038-0.311-0.102-0.589-0.107-0.892 0.23 0.128 0.474 0.183 0.627 0.405 0.073 0.102 0.209 0.149 0.316 0.218 0.141 0.085 0.29 0.149 0.435 0.209 0.162 0.068 0.333 0.111 0.525 0.115-0.026-0.094-0.107-0.119-0.166-0.154-0.491-0.256-0.913-0.602-1.306-0.99-0.119-0.119-0.23-0.252-0.346-0.38-0.213-0.235-0.41-0.486-0.674-0.674-0.23-0.166-0.388-0.405-0.58-0.61-0.235-0.252-0.529-0.435-0.777-0.67-0.303-0.29-0.666-0.491-1.020-0.713-0.201-0.128-0.252-0.358-0.311-0.572-0.051-0.179-0.051-0.363 0.004-0.538 0.060-0.188 0.077-0.375 0.077-0.567 0-0.060 0.004-0.115 0.055-0.141s0.090 0.030 0.132 0.060c0.316 0.222 0.491 0.559 0.713 0.862 0.077 0.107 0.149 0.213 0.166 0.35 0.013 0.085 0.077 0.137 0.154 0.175 0.149 0.077 0.294 0.154 0.444 0.226 0.145 0.073 0.26 0.166 0.346 0.307 0.218 0.388 0.508 0.691 0.947 0.853 0.209 0.077 0.384 0.256 0.529 0.439 0.043 0.055 0.060 0.128 0.004 0.179-0.085 0.077-0.085 0.201-0.171 0.277-0.055 0.047-0.013 0.124 0.055 0.111 0.047-0.009 0.102-0.081 0.137-0.111 0.158-0.137 0.273-0.205 0.486-0.213 0.205-0.004 0.384 0.060 0.572 0.141 0.512 0.23 0.862 0.64 1.225 1.041 0.179 0.201 0.35 0.418 0.606 0.538 0.081 0.038 0.115 0.111 0.137 0.192 0.038 0.132 0.119 0.239 0.205 0.35 0.030-0.013 0.064-0.021 0.098-0.030-0.021-0.115-0.107-0.205-0.111-0.316 0.060-0.004 0.094 0.038 0.128 0.064 0.247 0.166 0.469 0.333 0.73 0.444zM13.602 20.407c-0.038-0.090-0.081-0.171-0.175-0.243-0.038-0.077-0.102-0.145-0.196-0.201-0.38-0.235-0.781-0.427-1.165-0.649-0.145-0.085-0.256-0.218-0.367-0.341-0.119-0.132-0.247-0.222-0.397-0.316-0.388-0.247-0.772-0.529-1.109-0.845 0 0 0 0 0 0-0.013-0.090-0.094-0.158-0.179-0.175-0.004 0-0.004 0-0.009 0-0.077-0.149-0.222-0.277-0.371-0.299-0.098-0.013-0.179 0.034-0.247 0.094-0.162 0.141-0.32 0.299-0.491 0.431-0.175 0.137-0.363 0.294-0.555 0.401-0.183 0.102-0.414 0.073-0.61 0.068-0.166-0.004-0.294 0.055-0.405 0.175-0.171 0.183-0.418 0.282-0.576 0.469-0.013 0.017-0.162 0.017-0.192 0.021-0.068 0.017-0.137 0.038-0.196 0.073-0.124 0.064-0.213 0.162-0.32 0.252-0.256 0.213-0.495 0.448-0.734 0.683-0.051 0.051-0.111 0.038-0.145 0.077-0.256 0.26-0.593 0.461-0.708 0.841-0.013 0.043-0.051 0.077-0.026 0.132 0.209-0.183 0.422-0.363 0.627-0.55 0.085-0.077 0.218-0.090 0.303-0.166 0.030-0.026 0.205-0.213 0.252-0.137 0.034 0.055 0.017 0.154-0.030 0.23-0.102 0.162-0.196 0.324-0.32 0.474 0.247-0.107 0.41-0.294 0.542-0.516 0.141-0.243 0.32-0.448 0.563-0.602 0.303-0.192 0.64-0.316 0.943-0.503 0.090-0.055 0.162-0.137 0.26-0.175 0.051 0.009 0.124 0.021 0.175 0.009 0.013 0.009 0.026 0.021 0.038 0.030-0.021 0.055-0.060 0.111-0.098 0.158-0.183 0.222-0.363 0.448-0.559 0.661-0.013 0.017-0.026 0.030-0.034 0.047-0.085 0.060-0.158 0.128-0.218 0.213-0.192 0.175-0.41 0.32-0.572 0.529-0.107 0.137-0.081 0.239 0.090 0.273 0.265 0.051 0.516 0.009 0.734-0.158 0.179-0.132 0.371-0.196 0.593-0.201 0.205-0.004 0.38-0.077 0.538-0.213 0.137-0.119 0.324-0.175 0.444-0.32 0.154-0.183 0.316-0.363 0.375-0.597 0.026-0.102 0.098-0.166 0.158-0.243 0.068-0.085 0.222-0.111 0.311-0.162 0.132-0.081 0.158-0.222 0.179-0.363 0.026-0.201 0.132-0.333 0.265-0.461 0.090-0.085 0.179-0.090 0.26 0.013 0.205 0.269 0.495 0.41 0.785 0.555 0.171 0.085 0.333 0.188 0.457 0.358 0.132 0.179 0.252 0.367 0.375 0.555 0.085 0.132 0.145 0.354 0.273 0.444 0.196 0.137 0.324 0.252 0.452 0.457 0.064 0.107 0.141 0.205 0.265 0.316-0.034-0.38-0.107-0.704-0.393-0.93-0.115-0.094-0.145-0.218-0.175-0.371 0.316 0.107 0.567 0.277 0.802 0.478 0.124 0.107 0.247 0.235 0.388 0.324 0.030 0.128 0.188 0.119 0.252 0.218-0.030-0.043-0.034-0.132-0.055-0.183-0.038-0.051-0.055-0.098-0.073-0.137z"></path>
</symbol>
<symbol id="icon-home" viewBox="0 0 32 32">
<title>home</title>
<path d="M31.599 15.625c0.58-0.638 0.524-1.616-0.125-2.183l-14.301-12.514c-0.649-0.568-1.69-0.556-2.325 0.027l-14.35 13.154c-0.635 0.583-0.667 1.559-0.069 2.18l0.36 0.375c0.597 0.621 1.562 0.695 2.154 0.165l1.072-0.96v14.060c0 0.863 0.699 1.561 1.561 1.561h5.594c0.862 0 1.561-0.698 1.561-1.561v-9.837h7.135v9.837c-0.012 0.862 0.604 1.56 1.466 1.56h5.928c0.862 0 1.561-0.698 1.561-1.561v-13.862c0 0 0.296 0.26 0.662 0.581s1.131 0.064 1.711-0.575l0.407-0.447z"></path>
</symbol>
<symbol id="icon-bed" viewBox="0 0 32 32">
<title>bed</title>
<path d="M28.446 10.082h-16.551c-0.809 0-2.159 0.306-2.159 2.387v3.182h20.868v-3.182c0-2.074-1.35-2.387-2.159-2.387z"></path>
<path d="M5.237 16.342h-3.15v-11.125h-2.087v21.566h2.087v-5.569h27.826v5.563h2.087v-10.434z"></path>
<path d="M8.478 12.867c0 1.61-1.305 2.915-2.915 2.915s-2.915-1.305-2.915-2.915c0-1.61 1.305-2.915 2.915-2.915s2.915 1.305 2.915 2.915z"></path>
</symbol>
<symbol id="icon-camping" viewBox="0 0 32 32">
<title>camping</title>
<path d="M20.9 6.036c-0.12-0.193-0.496-0.361-0.723-0.361h-6.418c-0.228 0-0.236 0.171-0.123 0.369l11.346 19.702c0.113 0.198 0.381 0.21 0.598 0.143l6.188-1.956c0.218-0.067 0.296-0.325 0.176-0.518l-11.044-17.379z"></path>
<path d="M5.517 25.75l5.475-11.686v11.306c0 1.012 1.073 0.954 1.3 0.954h10.669c0.228 0 0.32-0.367 0.208-0.564l-11.023-19.539c-0.113-0.198-0.295-0.198-0.408 0l-2.76 4.847c-0.113 0.198-0.365 0.448-0.564 0.558-2.792 1.549-6.557 3.618-8.226 4.35-0.25 0.11-0.236 0.425-0.041 0.616 0.371 0.363 1.16 1.193 1.888 2.192 0.424 0.581 0.794 1.23 1.098 1.873 0.097 0.206 0.079 0.535-0.034 0.733l-2.371 4.369c-0.112 0.198-0.018 0.564 0.209 0.564h3.982c0.228 0 0.495-0.371 0.599-0.574zM2.333 16.747c-0.102-0.090-0.090-0.211 0.031-0.275 1.175-0.615 6.733-3.532 8.278-4.477 0.117-0.071 0.159-0.034 0.097 0.088l-5.268 10.352c-0.062 0.122-0.133 0.112-0.163-0.022-0.198-0.875-1.002-3.923-2.975-5.667z"></path>
</symbol>
<symbol id="icon-carabiner" viewBox="0 0 32 32">
<title>carabiner</title>
<path d="M28.748 3.262c-0.025-0.025-0.049-0.049-0.074-0.073-2.108-2.069-4.896-3.202-7.851-3.189-2.957 0.013-5.737 1.172-7.828 3.263-0.453 0.453-0.866 0.945-1.234 1.468l3.214 2.665c0.269-0.424 0.588-0.825 0.958-1.195 2.712-2.712 7.099-2.728 9.83-0.047 2.736 2.685 2.784 7.124 0.106 9.866-0.505 0.517-1.070 0.939-1.673 1.265-1.213 0.657-2.389 1.381-3.547 2.13l-3.268 2.112c-1.651 1.067-3.036 2.486-4.129 4.12-0.2 0.299-0.436 0.581-0.708 0.84-1.923 1.83-4.987 1.809-6.886-0.045-1.866-1.821-1.988-4.741-0.368-6.707 0.070-0.085 0.563-0.709 1.209-1.529l-3.199-2.653c-0.736 0.934-1.113 1.411-1.222 1.546-1.428 1.736-2.161 3.931-2.064 6.182 0.097 2.27 1.032 4.409 2.63 6.023 0 0 0.032 0.032 0.032 0.032 1.686 1.686 3.935 2.632 6.331 2.663 2.399 0.031 4.673-0.858 6.402-2.504 0.488-0.464 0.924-0.982 1.297-1.539 0.818-1.223 1.804-2.212 2.93-2.94l3.356-2.168c1.095-0.708 2.222-1.364 3.358-2.004 0.912-0.514 1.746-1.156 2.491-1.92 4.243-4.342 4.201-11.368-0.093-15.662z"></path>
<path d="M12.099 13.124l-5.161-4.28-3.564 4.335 5.161 4.28z"></path>
<path d="M14.874 9.748l-5.161-4.28-1.585 1.928 5.161 4.28z"></path>
</symbol>
<symbol id="icon-climbing" viewBox="0 0 32 32">
<title>climbing</title>
<path d="M6.307 5.7c2.006-1.593 1.255-4.974-1.249-5.601-2.217-0.557-4.274 1.32-3.93 3.587 0.366 2.413 3.258 3.537 5.178 2.013z"></path>
<path d="M8.38 7.579c-0.392-0.775-1.36-1.132-2.162-0.798l-3.062 1.279c-0.552 0.231-0.884 0.735-0.922 1.283l-0.011-0.021c0 0-1.283 3.673 0 6.098 0.892 1.687 2.857 2.538 3.973 2.9l0.444 0.952c0.014 0.030 0.034 0.055 0.049 0.083l0.030 0.064 0.006-0.003c0.303 0.527 0.819 0.869 1.394 0.96-0.361 2.027-0.218 4.987 2.606 7.406 0.074 0.064 0.165 0.095 0.256 0.095 0.11 0 0.221-0.046 0.298-0.137 0.142-0.165 0.123-0.413-0.043-0.555-2.651-2.273-2.705-5.025-2.334-6.845 0.044-0.011 0.087-0.016 0.131-0.029l7.742-2.524 8.758 5.547c0.222 0.14 0.46 0.226 0.703 0.27l2.009 5.624c0.293 0.819 1.002 1.93 1.584 2.481s1.056 0.294 1.057-0.574l0.023-26.867c0-0.968-0.778-1.745-1.744-1.745h-17.937c-0.213-0.306-0.567-0.507-0.967-0.507h-0.984c-0.386 0-0.748 0.189-0.969 0.506s-0.273 0.721-0.138 1.084l2.035 5.501-0.994 0.114-0.83-1.643zM18.809 6.791c0.845 0.206 1.621 1.066 1.734 1.92s0.88 1.75 1.712 2.002l4 1.208c0.832 0.251 1.698 1.041 1.932 1.763s0.14 1.952-0.212 2.747l-1.312 2.962-8.564-5.424c-0.498-0.314-1.105-0.391-1.663-0.209l-3.451 1.125c1.376-1.405 3.844-4.478 3.989-8.541l1.835 0.447zM11.969 11.282c0.361-0.042 0.681-0.246 0.871-0.555s0.227-0.688 0.101-1.028l-1.764-4.768 5.014 1.221c-0.082 4.363-3.071 7.553-4.186 8.593l-1.657-3.279 1.621-0.185z"></path>
</symbol>
<symbol id="icon-speech-bubble" viewBox="0 0 32 32">
<title>speech-bubble</title>
<path d="M4.659 30.087h-2.267l1.603-1.603c0.864-0.864 1.404-1.989 1.549-3.209-3.702-2.429-5.544-5.949-5.544-9.639 0-6.807 6.256-13.724 16.054-13.724 10.38 0 15.946 6.365 15.946 13.128 0 6.807-5.625 13.168-15.946 13.168-1.808 0-3.695-0.241-5.379-0.684-1.595 1.635-3.755 2.563-6.016 2.563z"></path>
</symbol>
<symbol id="icon-restaurant" viewBox="0 0 32 32">
<title>restaurant</title>
<path d="M16.167 8.635l-1.211-8.067c-0.048-0.328-0.329-0.568-0.659-0.568-0.007 0-0.015 0-0.023 0-0.339 0.011-0.615 0.273-0.641 0.611l-0.584 7.004c-0.036 0.432-0.803 0.432-0.839 0l-0.583-7.004c-0.029-0.345-0.317-0.611-0.664-0.611s-0.636 0.265-0.664 0.611l-0.584 7.004c-0.036 0.432-0.803 0.432-0.839 0l-0.583-7.004c-0.028-0.336-0.304-0.599-0.643-0.611-0.008 0-0.015 0-0.021 0-0.329 0-0.611 0.24-0.659 0.568l-1.209 8.067c-0.356 2.364 0.927 4.625 3.089 5.568l-1.029 14.427c-0.061 0.868 0.243 1.731 0.836 2.368 0.592 0.637 1.431 1.003 2.303 1.003h0.005c0.871 0 1.711-0.365 2.304-1.003s0.897-1.5 0.836-2.368l-1.029-14.427c2.163-0.943 3.445-3.204 3.089-5.568z"></path>
<path d="M26.015 0.123c-0.176-0.125-0.403-0.155-0.607-0.084-0.057 0.020-5.777 2.121-5.777 8.628 0 4.684 1.524 7.049 2.381 8.009l-0.853 0.853c-0.109 0.109-0.177 0.252-0.192 0.405l-1.055 10.548c-0.091 0.897 0.204 1.796 0.809 2.465s1.473 1.052 2.375 1.052c1.764 0 3.2-1.436 3.2-3.2v-28.133c0.001-0.217-0.104-0.419-0.281-0.544z"></path>
</symbol>
<symbol id="icon-telephone" viewBox="0 0 32 32">
<title>telephone</title>
<path d="M31.175 23.611l-3.977-3.978c-1.061-1.061-2.915-1.063-3.978 0l-0.663 0.663 7.955 7.955 0.663-0.663c1.101-1.101 1.097-2.881 0-3.977z"></path>
<path d="M21.195 21.586c-0.837 0.648-2.031 0.622-2.795-0.144l-7.864-7.869c-0.766-0.766-0.792-1.961-0.144-2.796l-7.937-7.936c-3.414 3.98-3.281 9.977 0.487 13.745l12.444 12.449c3.616 3.616 9.54 4.096 13.746 0.487l-7.937-7.937z"></path>
<path d="M12.344 4.774l-3.977-3.978c-1.061-1.061-2.915-1.063-3.978 0l-0.663 0.663 7.955 7.955 0.663-0.663c1.101-1.101 1.098-2.881 0-3.977z"></path>
</symbol>
<symbol id="icon-book" viewBox="0 0 32 32">
<title>book</title>
<path d="M28 4v26h-21c-1.657 0-3-1.343-3-3s1.343-3 3-3h19v-24h-20c-2.2 0-4 1.8-4 4v24c0 2.2 1.8 4 4 4h24v-28h-2z"></path>
<path d="M7.002 26v0c-0.001 0-0.001 0-0.002 0-0.552 0-1 0.448-1 1s0.448 1 1 1c0.001 0 0.001-0 0.002-0v0h18.997v-2h-18.997z"></path>
</symbol>
<symbol id="icon-star-full" viewBox="0 0 32 32">
<title>star-full</title>
<path d="M32 12.408l-11.056-1.607-4.944-10.018-4.944 10.018-11.056 1.607 8 7.798-1.889 11.011 9.889-5.199 9.889 5.199-1.889-11.011 8-7.798z"></path>
</symbol>
<symbol id="icon-coin-dollar" viewBox="0 0 32 32">
<title>coin-dollar</title>
<path d="M15 2c-8.284 0-15 6.716-15 15s6.716 15 15 15c8.284 0 15-6.716 15-15s-6.716-15-15-15zM15 29c-6.627 0-12-5.373-12-12s5.373-12 12-12c6.627 0 12 5.373 12 12s-5.373 12-12 12zM16 16v-4h4v-2h-4v-2h-2v2h-4v8h4v4h-4v2h4v2h2v-2h4l-0-8h-4zM14 16h-2v-4h2v4zM18 22h-2v-4h2v4z"></path>
</symbol>
<symbol id="icon-info" viewBox="0 0 32 32">
<title>info</title>
<path d="M14 9.5c0-0.825 0.675-1.5 1.5-1.5h1c0.825 0 1.5 0.675 1.5 1.5v1c0 0.825-0.675 1.5-1.5 1.5h-1c-0.825 0-1.5-0.675-1.5-1.5v-1z"></path>
<path d="M20 24h-8v-2h2v-6h-2v-2h6v8h2z"></path>
<path d="M16 0c-8.837 0-16 7.163-16 16s7.163 16 16 16 16-7.163 16-16-7.163-16-16-16zM16 29c-7.18 0-13-5.82-13-13s5.82-13 13-13 13 5.82 13 13-5.82 13-13 13z"></path>
</symbol>
<symbol id="icon-question" viewBox="0 0 32 32">
<title>question</title>
<path d="M14 22h4v4h-4zM22 8c1.105 0 2 0.895 2 2v6l-6 4h-4v-2l6-4v-2h-10v-4h12zM16 3c-3.472 0-6.737 1.352-9.192 3.808s-3.808 5.72-3.808 9.192c0 3.472 1.352 6.737 3.808 9.192s5.72 3.808 9.192 3.808c3.472 0 6.737-1.352 9.192-3.808s3.808-5.72 3.808-9.192c0-3.472-1.352-6.737-3.808-9.192s-5.72-3.808-9.192-3.808zM16 0v0c8.837 0 16 7.163 16 16s-7.163 16-16 16c-8.837 0-16-7.163-16-16s7.163-16 16-16z"></path>
</symbol>
<symbol id="icon-plus" viewBox="0 0 32 32">
<title>plus</title>
<path d="M31 12h-11v-11c0-0.552-0.448-1-1-1h-6c-0.552 0-1 0.448-1 1v11h-11c-0.552 0-1 0.448-1 1v6c0 0.552 0.448 1 1 1h11v11c0 0.552 0.448 1 1 1h6c0.552 0 1-0.448 1-1v-11h11c0.552 0 1-0.448 1-1v-6c0-0.552-0.448-1-1-1z"></path>
</symbol>
<symbol id="icon-minus" viewBox="0 0 32 32">
<title>minus</title>
<path d="M0 13v6c0 0.552 0.448 1 1 1h30c0.552 0 1-0.448 1-1v-6c0-0.552-0.448-1-1-1h-30c-0.552 0-1 0.448-1 1z"></path>
</symbol>
<symbol id="icon-envelop" viewBox="0 0 32 32">
<title>envelop</title>
<path d="M29 4h-26c-1.65 0-3 1.35-3 3v20c0 1.65 1.35 3 3 3h26c1.65 0 3-1.35 3-3v-20c0-1.65-1.35-3-3-3zM12.461 17.199l-8.461 6.59v-15.676l8.461 9.086zM5.512 8h20.976l-10.488 7.875-10.488-7.875zM12.79 17.553l3.21 3.447 3.21-3.447 6.58 8.447h-19.579l6.58-8.447zM19.539 17.199l8.461-9.086v15.676l-8.461-6.59z"></path>
</symbol>
<symbol id="icon-bubbles" viewBox="0 0 36 32">
<title>bubbles</title>
<path d="M34 28.161c0 1.422 0.813 2.653 2 3.256v0.498c-0.332 0.045-0.671 0.070-1.016 0.070-2.125 0-4.042-0.892-5.398-2.321-0.819 0.218-1.688 0.336-2.587 0.336-4.971 0-9-3.582-9-8s4.029-8 9-8c4.971 0 9 3.582 9 8 0 1.73-0.618 3.331-1.667 4.64-0.213 0.463-0.333 0.979-0.333 1.522zM16 0c8.702 0 15.781 5.644 15.995 12.672-1.537-0.685-3.237-1.047-4.995-1.047-2.986 0-5.807 1.045-7.942 2.943-2.214 1.968-3.433 4.607-3.433 7.432 0 1.396 0.298 2.747 0.867 3.993-0.163 0.004-0.327 0.007-0.492 0.007-0.849 0-1.682-0.054-2.495-0.158-3.437 3.437-7.539 4.053-11.505 4.144v-0.841c2.142-1.049 4-2.961 4-5.145 0-0.305-0.024-0.604-0.068-0.897-3.619-2.383-5.932-6.024-5.932-10.103 0-7.18 7.163-13 16-13z"></path>
</symbol>
<symbol id="icon-climbing" viewBox="0 0 32 32">
<title>climbing</title>
<path d="M24.15 0c0.15 0.11 0.21 0.16 0.28 0.22 2.67 2.14 3.52 4.81 3.38 8.29-0.3 7.31-0.090 14.64-0.090 21.96 0 0.49 0 0.98 0 1.54-3.49 0-6.85 0-10.29 0 0.71-2.99 1.4-5.9 2.090-8.81 0.22-0.93 0.44-1.86 0.66-2.79 0.010-0.040 0.020-0.080 0.020-0.12 0.090-0.85-2.63-5.3-3.45-5.56-3.54-1.090-7.1-2.16-10.58-3.21 0 1.41 0 2.77 0 3.74 1.11 1.26 2.030 2.29 2.96 3.34 0.11-0.040 0.26-0.040 0.33-0.12 1.46-1.58 3.15-1.84 5.21-1.24 1.54 0.45 2.15 0.2 2.080-1.45 0.64 0.8 0.39 1.43 0.37 2.26-1.71 0-3.3 0.58-5.21 0-0.36 0.5-0.94 1.29-1.52 2.080 0.77 0.62 1.87 1.080 2.14 1.85 0.22 0.63-0.53 1.61-0.87 2.43-0.6 1.44-0.6 1.44 0.9 1.89-0.74 0.78-1.070 0.38-2.43-0.2 0.46-1.26 0.92-2.51 1.4-3.8-0.67-0.3-1.38-0.55-2.020-0.93-0.44-0.26-0.94-0.63-1.12-1.080-0.54-1.32-1.56-1.89-2.84-2.19-1.65-0.39-1.84-0.92-0.94-2.33 0.77-1.21 1.040-2.54 0.62-3.93-0.22-0.73 0.14-1.1 0.48-1.71 1.16-2.1 3.32-1.93 5.1-2.56 1.96-0.7 3.98-1.25 6-1.78 0.78-0.21 1.27-0.57 1.35-1.38 0.12-1.11 0.77-1.72 1.75-2.18 1.41-0.68 2.78-1.47 4.24-2.23z"></path>
<path d="M3.57 13.91c0.48 0.19 0.68 0.75 0.42 1.2-0.23 0.41-0.42 0.71-0.67 0.77-0.26 0.070-0.58-0.080-0.9-0.26-0.36-0.2-0.52-0.62-0.38-1.010 0.13-0.37 0.27-0.72 0.53-0.88 0.21-0.12 0.55 0.010 1 0.18z"></path>
</symbol>
<symbol id="icon-atc" viewBox="0 0 32 32">
<title>atc</title>
<path d="M26.35 9.92c-1.37 1.55-1.3 3.15-0.91 4.88 0.85 3.75 0.68 7.49-0.7 11.14-1.37 3.65-4.9 5.79-9.29 5.67-4.11-0.11-7.26-2.4-8.45-6.090-0.86-2.65-0.33-5.23 0.39-7.8 0.41-1.46 1.010-2.87 1.53-4.3 0.32-0.89 0.050-1.32-1.010-1.26-0.73 0.040-1.49 0.26-2.16 0.54-1.27 0.54-2.47 1.21-3.74 1.76-0.36 0.16-0.98 0.25-1.23 0.080-0.27-0.18-0.45-0.78-0.32-1.080 0.29-0.66 0.66-1.41 1.25-1.82 2.22-1.5 4.56-2.84 6.81-4.3 0.52-0.34 0.86-0.9 1.31-1.34 0.27-0.26 0.56-0.59 0.91-0.7 0.82-0.27 1.68-0.62 2.52-0.6 3.44 0.090 6.53-1.14 9.76-1.87 0.99-0.22 1.99-0.47 3-0.57 1.5-0.14 2.070 0.4 2.11 1.77 0.010 0.51 0.070 1.030 0.070 1.54 0.020 2.010 0.010 2.010 2.16 2.73 1.31 0.44 1.53 1.020 0.82 2.1-0.36 0.56-0.83 0.77-1.52 0.55-1.1-0.33-2.2-0.67-3.31-1.030zM8.47 22.55c0 0.17 0 0.34 0 0.51 0.060 3.29 2.27 5.98 5.45 6.64 4.55 0.95 8.24-1.19 9.46-5.46 1.1-3.85 0.68-7.66-0.2-11.48-0.15-0.65-0.65-0.66-1.21-0.63-3.3 0.14-6.59 0.26-9.89 0.43-0.35 0.020-0.87 0.24-0.98 0.48-1.34 3.070-2.55 6.17-2.63 9.51zM27.040 3.8c-5.29 0.95-10.33 1.85-15.060 2.69 0.28 0.39 1.040 0.97 0.99 1.48-0.12 1.22-0.29 2.53-1.69 3.49 1.61-0.1 3.040-0.17 4.47-0.28 2.45-0.19 4.91-0.39 7.35-0.64 0.43-0.050 1.030-0.33 1.18-0.64 0.95-1.98 1.81-3.98 2.76-6.1zM27.52 4.71c-0.090-0.010-0.19-0.030-0.28-0.040-0.74 1.73-1.52 3.45-2.21 5.2-0.29 0.74-0.79 1.15-1.62 1.22-1.090 0.1-2.19 0.15-3.29 0.23-2.17 0.16-4.34 0.32-6.52 0.48 3.29-0.010 6.57-0.23 9.85-0.36 1.030-0.040 1.65-0.32 1.87-1.25 0.21-0.88 0.81-1.050 1.71-0.72 1.010 0.36 2.060 0.66 3.11 0.99 0.29-0.42 0.52-0.75 0.87-1.26-0.76-0.26-1.4-0.54-2.080-0.7-1.040-0.25-1.53-0.78-1.42-1.78 0.060-0.66 0.010-1.33 0.010-2.010zM0.85 13.74c0.14 0.11 0.27 0.22 0.41 0.32 2.21-0.97 4.41-1.94 6.63-2.92-0.88-1.010-0.89-1.43 0.090-2.23 0.76-0.63 1.61-1.18 2.41-1.77-2.82 1.59-5.58 3.26-8.26 5.020-0.56 0.36-0.86 1.040-1.28 1.58zM10.1 10.86c1.22-0.11 1.91-0.87 2.1-2.49 0.030-0.27-0.040-0.68-0.24-0.81-0.19-0.13-0.67-0.060-0.91 0.080-0.61 0.33-1.21 0.7-1.71 1.16-0.47 0.42-0.8 0.97-1.19 1.46 0.65 0.2 1.3 0.4 1.95 0.6zM26.96 3.12c-0.020-0.090-0.050-0.17-0.070-0.26-3.33 0.13-6.33 1.45-9.52 2.080 0.020 0.090 0.050 0.18 0.070 0.27 3.18-0.7 6.35-1.4 9.52-2.090z"></path>
<path d="M27.040 3.8c-0.95 2.12-1.81 4.13-2.77 6.090-0.16 0.32-0.75 0.6-1.18 0.64-2.44 0.26-4.9 0.45-7.35 0.64-1.43 0.11-2.86 0.18-4.47 0.28 1.4-0.96 1.57-2.27 1.69-3.49 0.050-0.51-0.71-1.090-0.99-1.48 4.74-0.84 9.77-1.74 15.070-2.68z"></path>
<path d="M27.52 4.71c0 0.67 0.060 1.35-0.010 2.020-0.11 1 0.38 1.53 1.42 1.78 0.67 0.16 1.32 0.44 2.080 0.7-0.35 0.5-0.58 0.84-0.87 1.26-1.050-0.33-2.090-0.63-3.11-0.99-0.9-0.32-1.5-0.16-1.71 0.72-0.22 0.93-0.84 1.21-1.87 1.25-3.28 0.13-6.56 0.35-9.85 0.36 2.17-0.16 4.34-0.33 6.52-0.48 1.1-0.080 2.2-0.13 3.29-0.23 0.83-0.070 1.33-0.49 1.62-1.22 0.69-1.75 1.47-3.47 2.21-5.2 0.090 0.010 0.18 0.020 0.28 0.030z"></path>
<path d="M0.85 13.74c0.42-0.54 0.72-1.22 1.28-1.59 2.68-1.76 5.44-3.43 8.26-5.020-0.8 0.6-1.65 1.15-2.41 1.78-0.98 0.8-0.97 1.22-0.090 2.24-2.22 0.98-4.43 1.95-6.63 2.92-0.14-0.11-0.27-0.22-0.41-0.33z"></path>
<path d="M26.96 3.12c-3.17 0.7-6.35 1.39-9.52 2.090-0.020-0.090-0.050-0.18-0.070-0.27 3.19-0.64 6.19-1.96 9.52-2.080 0.030 0.080 0.050 0.17 0.070 0.26z"></path>
</symbol>
<symbol id="icon-carabiner-alt" viewBox="0 0 32 32">
<title>carabiner-alt</title>
<path d="M24.75 15.89c0.36 0.16 0.67 0.3 1.040 0.46-0.52 1.93-1.070 3.81-1.54 5.7-0.21 0.84-0.63 1.020-1.4 0.61-0.55 1.66-0.97 3.28-1.61 4.82-1.36 3.27-3.8 4.86-6.56 4.45-3.95-0.59-6.050-2.61-6.41-6.45-0.45-4.76-0.86-9.53-1.1-14.31-0.090-1.88 0.11-3.84 0.53-5.68 0.97-4.2 4.56-6.3 9.050-5.19 2.090 0.52 4.15 1.43 6.020 2.51 2.86 1.65 3.91 4.36 3.26 7.61-0.35 1.77-0.82 3.54-1.28 5.47zM20.72 14.93c1.2 0.56 1.3-0.28 1.48-1.080 0.28-1.29 0.63-2.56 0.91-3.85 0.46-2.090-0.020-3.65-1.89-4.67-1.78-0.97-3.71-1.79-5.67-2.27-2.52-0.62-4.5 0.79-5.070 3.34-0.25 1.1-0.41 2.26-0.35 3.39 0.22 4.46 0.51 8.92 0.83 13.37 0.090 1.22 0.27 2.45 0.62 3.62 0.45 1.47 1.85 2.3 3.55 2.27 1.56-0.020 2.77-0.73 3.33-2.18 0.6-1.56 1.010-3.19 1.5-4.8-0.37-0.21-0.71-0.4-1.020-0.58 0.59-2.2 1.17-4.3 1.78-6.56z"></path>
</symbol>
<symbol id="icon-climbing-shoes" viewBox="0 0 32 32">
<title>climbing-shoes</title>
<path d="M19.22 8.78c0.28-0.15 0.55-0.31 0.89-0.49 0.63 0.85 1.24 1.67 2.020 2.71-0.37 0.14-0.75 0.3-1.1 0.44 0.41 0.56 0.64 0.88 0.93 1.28 0.31-0.14 0.62-0.28 0.99-0.45 0.64 0.86 1.28 1.71 1.94 2.59-0.28 0.22-0.52 0.41-0.82 0.64 0.24 0.34 0.45 0.66 0.71 1.030 0.31-0.11 0.6-0.22 0.97-0.35 0.61 0.81 1.22 1.63 1.88 2.51-0.22 0.22-0.45 0.46-0.69 0.71 1.040 0.9 2.12 1.7 3.030 2.64 1.91 1.97 2.49 4.23 1.33 6.75-0.67 1.45-1.42 1.64-2.73 0.62-3.57-2.78-7.24-5.42-11.36-7.47-3.11-1.55-6.38-2.46-9.92-2.75-1.56-0.13-3.2-0.6-4.56-1.32-3.43-1.82-3.66-5.8-0.43-7.95 1.86-1.24 3.45-2.61 4.69-4.38 0.21-0.34 0.86-0.7 1.17-0.61 0.42 0.13 0.86 0.61 1.010 1.030 0.22 0.65 0.19 1.37 0.29 2.060 0.080 0.57 0.11 1.17 0.32 1.7 0.38 0.98 0.97 1.86 2.28 1.8 1.060-0.050 2.050-1.18 2.2-2.37 0.080-0.61 0.050-1.25 0.24-1.83 0.35-1.090 1.31-1.44 2.33-0.84 0.94 0.55 1.78 1.25 2.67 1.88-0.1 0.15-0.19 0.28-0.28 0.42z"></path>
</symbol>
<symbol id="icon-grigri" viewBox="0 0 32 32">
<title>grigri</title>
<path d="M7.020 30.55c-0.71-0.87-1.66-1.65-2.070-2.61-1.1-2.58-2.080-5.22-2.89-7.88-0.47-1.55 0.19-2.020 1.73-1.6 1.83 0.5 2.8-0.65 3.78-1.71s1.82-2.23 2.8-3.29c1.82-1.97 4.060-3.35 6.73-4.060 1.41-0.38 2.29-1.21 2.86-2.5 0.24-0.54 0.85-1.22 1.36-1.24 1.71-0.070 3.49-0.12 5.16 0.29 1.47 0.36 1.8 1.87 1.69 3.16-0.11 1.23-0.33 2.49-0.79 3.61-1.31 3.19-2.4 6.55-4.25 9.41-2.24 3.45-5.7 5.88-9.2 8.14-0.55 0.36-1.15 0.68-1.78 0.9-1.69 0.6-3.38 0.5-5.13-0.62zM8.53 28.1c1.28 0.88 2.77 0.69 3.61-0.46 0.87-1.2 0.54-2.71-0.8-3.64s-2.92-0.74-3.73 0.45c-0.81 1.19-0.43 2.72 0.92 3.65zM23.25 14.18c-0.090 0.090-0.21 0.16-0.26 0.26-1.070 2.11-2 2.28-3.9 0.63-0.41-0.36-0.7-0.86-1.010-1.32-0.72-1.080-1.73-1.47-2.89-1.2-1.12 0.26-1.73 1.070-1.73 2.21 0 1.2 0.71 1.95 1.87 2.51 0.94 0.45 1.78 1.15 2.59 1.83 0.68 0.58 0.5 1.090-0.25 1.43-0.67 0.3-1.3 0.66-1.95 1 0.080 0.1 0.16 0.2 0.25 0.3 3.63-1.4 6.3-3.72 7.28-7.65zM25.65 7.53c-0.96-0.64-2.17-0.45-2.77 0.44-0.59 0.87-0.3 2.1 0.64 2.74s2.19 0.45 2.78-0.43c0.59-0.89 0.3-2.13-0.65-2.75z"></path>
<path d="M19.61 5.41c-0.3 1.68-0.92 2.86-2.66 3.31-3.81 1-6.6 3.33-8.86 6.35-0.69 0.93-1.59 1.74-2.53 2.44-0.41 0.3-1.19 0.23-1.78 0.14-0.16-0.020-0.5-0.93-0.35-1.11 1.82-2.23 3.56-4.54 5.61-6.54 2.8-2.74 6.46-4.020 10.57-4.59z"></path>
<path d="M4.24 13.25c0.89-1.28 1.64-2.69 2.7-3.83 4.090-4.4 9.31-7.1 15.3-8.58 1.22-0.3 2.37-0.080 3.4 0.79 0.63 0.53 0.83 1.14 0.010 1.49-1.090 0.47-2.23 1.040-3.41 1.12-7.090 0.5-12.91 3.090-17.040 8.59-0.13 0.17-0.26 0.35-0.4 0.52-0.050 0.060-0.15 0.090-0.22 0.13-0.11-0.080-0.23-0.15-0.34-0.23z"></path>
<path d="M17.11 13.36c0.88 0.67 1.12 1.96 0.51 2.77-0.61 0.82-1.95 0.98-2.81 0.34-0.87-0.65-1.11-1.98-0.51-2.78 0.6-0.81 1.96-0.97 2.81-0.33z"></path>
<path d="M17.21 17.45c1.54-2 1.54-2 4.21-0.48-1.2 2.73-2.38 2.89-4.21 0.48z"></path>
<path d="M25.316 8.090c0.619 0.436 0.796 1.25 0.395 1.819s-1.227 0.677-1.846 0.242c-0.619-0.436-0.796-1.25-0.395-1.819s1.227-0.677 1.846-0.242z"></path>
</symbol>
<symbol id="icon-harness" viewBox="0 0 32 32">
<title>harness</title>
<path d="M5.24 7.18c0.55-0.35 1.030-0.64 1.65-1.030 0.020-0.88 0.17-1.95 1.54-2.19 1.030-0.18 1.93 0.66 2.72 2.48 2.93 0 5.89 0.020 8.85-0.030 0.27 0 0.59-0.34 0.79-0.6 0.28-0.35 0.39-0.92 0.74-1.12 0.59-0.34 1.4-0.76 1.95-0.6 0.54 0.16 0.89 0.99 1.27 1.55 0.11 0.16 0.050 0.44 0.050 0.56 0.56 0.27 1.060 0.51 1.84 0.89 0.26-0.040 0.89-0.28 1.47-0.19 0.62 0.1 1.45 0.36 1.7 0.81 0.19 0.34-0.24 1.22-0.64 1.63-0.55 0.56-1.29 0.98-2.020 1.31-1.76 0.81-2.070 1.51-0.88 2.98 0.78 0.96 1.73 1.87 2.77 2.55 3.030 1.96 3.1 5.45-0.010 7.34-1.98 1.21-4.010 2.34-6.070 3.4-2.84 1.46-5.96 0.21-6.4-2.59-0.14-0.9 0.18-1.94 0.56-2.81 0.51-1.17 0.25-3.66-0.76-4.4-0.24-0.17-0.91-0.1-1.15 0.12-1 0.9-1.26 3.16-0.6 4.32 0.91 1.6 0.8 3.32-0.29 4.57-1.11 1.27-3.1 1.9-4.79 1.1-2.58-1.23-5.16-2.54-7.47-4.18-2.65-1.88-2.11-5.13 0.64-6.89 1.29-0.82 2.27-2.14 3.26-3.33 0.53-0.64-0.16-1.7-1.050-2.1-0.91-0.42-1.82-0.89-2.55-1.52-0.36-0.32-0.55-1.14-0.39-1.59 0.13-0.37 0.89-0.68 1.4-0.71 0.66-0.050 1.35 0.18 1.87 0.27zM8.25 19.36c-0.7-0.4-1.33-0.78-1.97-1.13-0.27-0.15-0.55-0.29-0.84-0.37-1.29-0.39-2.4-0.050-2.95 0.89-0.54 0.92-0.21 2.26 0.88 3.010 1.050 0.72 2.19 1.3 3.38 2 0.51-1.51 1-2.93 1.5-4.4zM24.91 23.72c0.92-0.51 1.76-0.98 2.6-1.45 0.24-0.13 0.48-0.26 0.69-0.42 1.13-0.81 1.55-2.15 0.99-3.080-0.61-1.020-1.99-1.37-3.3-0.78-0.84 0.38-1.63 0.87-2.5 1.34 0.52 1.48 1.010 2.9 1.52 4.39zM10.53 18.49c0.81 0.45 1.56 0.87 2.040 1.13 0.79-1.34 1.5-2.55 2.22-3.76 0.060-0.1 0.13-0.2 0.13-0.3 0.010-1.5 0.010-2.99 0.010-4.42-1.35-0.37-1.99-0.030-2.33 1.2-0.57 2.030-1.34 4.010-2.070 6.15zM19.090 19.64c0.54-0.32 1.29-0.75 2.040-1.19-0.73-2.14-1.52-4.12-2.070-6.17-0.35-1.3-1.030-1.49-2.25-1.14 0 1.25-0.010 2.5 0 3.75 0 0.34-0.030 0.72 0.12 1 0.67 1.24 1.4 2.46 2.16 3.75zM21.71 20.24c-0.93 0.58-1.77 1.010-2.47 1.58-0.92 0.74-1.18 1.93-0.69 2.75 0.58 0.99 1.54 1.27 2.6 1.020 0.72-0.17 1.39-0.56 2.1-0.87-0.53-1.56-1.010-2.94-1.54-4.48zM8.42 24.69c0.58 0.29 1.11 0.62 1.68 0.82 1.21 0.42 2.46 0.010 2.98-0.89 0.53-0.91 0.25-2.13-0.8-2.92-0.7-0.53-1.5-0.92-2.35-1.43-0.5 1.5-0.99 2.92-1.51 4.42zM8.89 17.53c0.72-2.11 1.4-4.13 2.12-6.25-0.92 0.26-1.7 0.46-2.46 0.7-0.2 0.060-0.43 0.21-0.51 0.37-0.64 1.26-1.26 2.54-1.86 3.79 0.74 0.38 1.63 0.84 2.71 1.39zM25.56 16.070c-0.75-1.31-1.47-2.57-2.26-3.94-0.69-0.22-1.58-0.51-2.63-0.85 0.74 2.17 1.43 4.18 2.13 6.25 1.020-0.54 1.91-1.010 2.76-1.46zM5.34 10.18c0.13-0.070 0.26-0.15 0.39-0.22-0.15-0.61-0.090-1.53-0.47-1.76-0.75-0.44-1.73-0.71-3.040-0.11 1.22 0.82 2.17 1.45 3.12 2.090zM26.25 10.26c1.090-0.76 1.99-1.4 3.11-2.18-2.39-0.68-3.29-0.050-3.11 2.18zM21.51 6.59c0.93-0.43 1.93 0.43 2.29-0.69 0.080-0.26-0.4-0.98-0.65-0.99-0.91-0.050-1.27 0.64-1.64 1.68zM7.56 6.35c1.12 0 1.78 0 2.52 0-0.32-0.84-0.7-1.57-1.6-1.43-0.32 0.060-0.53 0.79-0.92 1.43z"></path>
</symbol>
<symbol id="icon-helmet" viewBox="0 0 32 32">
<title>helmet</title>
<path d="M14.030 30.94c-0.79-0.080-1.39-0.15-2.070-0.22 0-0.88-0.12-1.77 0.030-2.62 0.28-1.62 0.040-3.050-0.8-4.51-1.19-2.080-1.73-4.74-3.43-6.25-1.68-1.49-4.45-1.85-6.75-2.71-0.3-0.11-0.6-0.23-1.020-0.39 0.7-3.67 2.2-6.91 5.49-9.020 5.85-3.76 12.25-4.63 18.87-2.34 6.1 2.1 8.57 6.72 7.32 12.97-0.41 2.060-0.85 4.12-1.4 6.15-0.1 0.36-0.8 0.84-1.19 0.82-4.76-0.22-8.97 2-13.51 2.75-0.91 0.15-1.34 0.54-1.33 1.51 0.040 1.24-0.12 2.48-0.21 3.86zM10.52 17.36c1.030 2.040 2.020 4.050 3.080 6.030 0.13 0.23 0.75 0.41 1.060 0.33 2.99-0.78 5.96-1.62 9.020-2.46-3.6-3.17-7.89-4.44-13.16-3.9zM26.77 8.81c-0.020-1.69-1.17-3.33-1.91-3.030-0.46 0.19-0.88 0.97-0.93 1.51-0.11 1.24 0.96 2.71 1.76 2.5 0.52-0.13 0.88-0.79 1.080-0.98zM22.7 6.38c-0.79-0.82-1.39-1.45-2-2.080-0.29 0.38-0.79 0.74-0.84 1.16-0.13 0.98 0.8 2.25 1.49 2.1 0.41-0.1 0.71-0.61 1.35-1.18zM15.81 5.16c0.64 0.65 1.17 1.19 1.7 1.74 0.24-0.33 0.77-0.79 0.68-0.98-0.32-0.67-0.84-1.25-1.29-1.86-0.29 0.29-0.58 0.58-1.090 1.1zM15.090 5.95c-0.62-0.59-1.090-1.030-1.56-1.48-0.19 0.3-0.62 0.68-0.54 0.87 0.25 0.6 0.68 1.12 1.050 1.67 0.27-0.27 0.55-0.55 1.050-1.060z"></path>
</symbol>
<symbol id="icon-quick-draw" viewBox="0 0 32 32">
<title>quick-draw</title>
<path  d="M3.050 23.83c0.25-0.16 0.49-0.37 0.76-0.48 0.26-0.1 0.56-0.1 0.84-0.15 0.090-0.020 0.2-0.010 0.28-0.060 0.9-0.54 1.7-1.18 2.31-2.050 0.24-0.34 0.49-0.73 0.83-0.94s0.79-0.27 1.2-0.3c0.44-0.040 0.88 0.030 1.36 0.060 0-0.52 0.26-0.68 0.77-0.55 0.1 0.030 0.28-0.1 0.37-0.2 2.61-2.76 5.21-5.52 7.81-8.3 0.1-0.11 0.13-0.33 0.12-0.49-0.040-0.35-0.16-0.7-0.19-1.050-0.070-0.76 0.050-1.44 0.6-2.070 0.78-0.9 1.45-1.89 2.16-2.84 0.050-0.070 0.15-0.15 0.13-0.21-0.12-0.67 0.35-1.1 0.61-1.61 0.14-0.15 0.28-0.3 0.42-0.45 1.52-0.6 2.97-0.35 4.6-0.1 0.98 0.15 0.62-0.050 1.59 0.42 0.75 0.37 0.9 1 0.93 2.67-0.23 1.2-1.29 1.9-2.14 2.73-1.43 1.39-2.94 2.69-4.42 4.030-0.64 0.58-1.39 0.82-2.26 0.68-0.18-0.030-0.44 0.070-0.56 0.2-2.53 2.67-5.050 5.35-7.56 8.040-0.12 0.13-0.13 0.38-0.19 0.57-0.070 0.23-0.13 0.46-0.27 0.68 0.020 0.83-0.23 1.56-0.77 2.21-1.64 2-3.26 4.020-4.92 6-0.85 1.020-1.82 1.16-3.18 0.61-0.22-0.21-0.45-0.42-0.67-0.63-0.020-0.050-0.020-0.1-0.050-0.14-1.27-1.86-1.59-3.85-0.79-5.98 0.090-0.1 0.19-0.2 0.28-0.3zM22.67 10.93c2.050-1.91 4.080-3.8 6.17-5.75-1.46-0.44-1.46-0.44-0.89-1.37-1.12-0.56-2.28-0.63-3.47-0.32-0.13 0.030-0.33 0.23-0.31 0.31 0.11 0.47-0.22 0.73-0.45 1.030-0.8 1.060-1.61 2.11-2.41 3.17-0.3 0.4-0.31 1.34-0.050 1.59 0.44 0.44 0.89 0.85 1.41 1.34zM9.58 21.44c-0.45 0.020-0.92-0.080-1.17 0.37-0.55 0.99-1.37 1.69-2.3 2.27-0.46 0.29-0.92 0.7-1.42 0.77-0.56 0.070-0.61 0.35-0.66 0.74-0.16 1.26 0.17 2.4 0.83 3.46 0.38 0.61 0.9 0.67 1.36 0.13 1.1-1.3 2.21-2.6 3.28-3.92 0.55-0.67 1.040-1.38 1.53-2.040-0.64-0.5-1.37-0.87-1.45-1.78zM16 15.010c-1.16 1.23-2.31 2.46-3.47 3.69-0.96 1.020-0.96 1.030 0.12 1.92 0.33 0.28 0.57 0.29 0.89-0.060 2.47-2.66 4.97-5.29 7.45-7.94 0.24-0.26 0.47-0.54 0.67-0.83 0.78-1.090 0.73-0.75-0.13-1.71-0.24-0.27-0.45-0.26-0.69-0.040-0.45 0.41-0.92 0.81-1.35 1.25-1.17 1.23-2.33 2.48-3.49 3.72zM12.8 21.91c-0.26 0.18-0.49 0.28-0.63 0.45-0.88 1.040-1.73 2.1-2.6 3.14-1.1 1.32-2.21 2.64-3.34 3.93-0.42 0.48-1.080 0.41-1.44-0.11-0.74-1.11-1.2-2.34-0.94-3.67 0.14-0.74-0.020-1.18-0.63-1.53-0.030-0.020-0.060-0.020-0.16-0.050-0.090 0.2-0.22 0.4-0.28 0.62-0.59 1.98-0.18 3.79 1.020 5.41 0.88 1.18 2.41 1.28 3.36 0.17 1.82-2.14 3.57-4.34 5.33-6.53 0.39-0.47 0.49-1.070 0.31-1.83zM28.81 3.95c0.43 0.78 0.41 1.070-0.22 1.68-1.36 1.31-2.73 2.62-4.11 3.91-0.55 0.51-1.13 0.98-1.69 1.48-0.43 0.38-0.84 0.78-1.35 1.26 0.94 0.25 1.64 0.14 2.2-0.37 2.030-1.84 4.040-3.71 6.050-5.57 0.17-0.16 0.31-0.37 0.42-0.58 0.59-1.070 0.21-2.29-0.52-2.64-0.26 0.28-0.52 0.56-0.78 0.83zM29.080 2.73c-1.33-0.99-4.040-1.21-5.43-0.42-0.55 0.31-0.78 0.89-1.11 1.53 0.33-0.27 0.55-0.45 0.8-0.65-0.010-0.030-0.050-0.14-0.1-0.26 0.050-0.020 0.070-0.030 0.080-0.030 0.15 0.13 0.3 0.28 0.46 0.39 0.1 0.070 0.26 0.17 0.34 0.14 1.3-0.51 2.56-0.36 3.82 0.14 0.11 0.040 0.31 0.010 0.4-0.070 0.27-0.24 0.5-0.51 0.74-0.77zM7.28 23.020c0.66-0.87 1.11-1.48 1.58-2.080 0.23-0.3 0-0.42-0.17-0.58-0.18-0.16-0.35-0.25-0.55 0.010-0.34 0.44-0.7 0.86-1.060 1.28-0.75 0.86-1.64 1.52-2.69 1.96-0.3 0.12-0.43 0.29-0.23 0.58 0.16 0.22 0.23 0.68 0.65 0.42 0.92-0.56 1.81-1.16 2.47-1.59zM20.74 8.57c0-0.050 0-0.1 0-0.14 0.19-0.26 0.38-0.52 0.58-0.77 0.83-1.090 1.67-2.19 2.51-3.27 0.24-0.32 0.13-0.52-0.15-0.71-0.27-0.18-0.49-0.24-0.73 0.090-0.98 1.35-1.97 2.68-2.98 4-0.31 0.4-0.020 0.61 0.21 0.79 0.12 0.090 0.37 0.010 0.56 0.010zM19.79 8.47c-0.050 0.020-0.1 0.050-0.16 0.070 0.080 0.64 0.17 1.28 0.26 1.98 0.74-0.48 1.36-0.88 0.93-1.81-0.43 0.47-0.72 0.060-1.030-0.24zM8.92 21.22c0.92 0.080 1.53-0.31 1.69-1.12-0.6-0.020-1.18-0.040-1.77-0.060-0.020 0.040-0.030 0.090-0.050 0.13 0.38 0.31 0.58 0.65 0.13 1.050zM28.020 4.79c0.35 0.040 0.59 0.060 0.95 0.1-0.11-0.3-0.19-0.51-0.29-0.8-0.25 0.26-0.42 0.44-0.66 0.7zM4.31 23.27c-0.31 0.2-0.62 0.41-0.96 0.63 0.26 0.24 0.45 0.43 0.71 0.67-0.3-0.8-0.29-0.81 0.25-1.3z"></path>
<path  d="M16 15.010c1.17-1.24 2.33-2.49 3.51-3.72 0.42-0.44 0.89-0.84 1.35-1.25 0.24-0.22 0.45-0.23 0.69 0.040 0.86 0.96 0.91 0.62 0.13 1.71-0.21 0.29-0.43 0.57-0.67 0.83-2.48 2.65-4.98 5.28-7.45 7.94-0.33 0.35-0.56 0.34-0.89 0.060-1.080-0.9-1.080-0.9-0.12-1.92 1.14-1.23 2.29-2.46 3.45-3.69z"></path>
<path  d="M12.8 21.91c0.18 0.76 0.080 1.36-0.3 1.84-1.75 2.19-3.5 4.39-5.33 6.53-0.95 1.12-2.48 1.020-3.36-0.17-1.21-1.62-1.61-3.43-1.020-5.41 0.060-0.22 0.19-0.42 0.28-0.62 0.1 0.030 0.13 0.030 0.16 0.050 0.6 0.35 0.77 0.79 0.63 1.53-0.26 1.33 0.2 2.56 0.94 3.67 0.35 0.53 1.020 0.6 1.44 0.11 1.13-1.3 2.23-2.62 3.34-3.93 0.87-1.040 1.73-2.1 2.6-3.14 0.14-0.18 0.36-0.28 0.62-0.46z"></path>
<path  d="M28.81 3.95c0.26-0.28 0.52-0.56 0.78-0.83 0.73 0.35 1.11 1.57 0.52 2.64-0.11 0.21-0.25 0.42-0.42 0.58-2.010 1.87-4.020 3.73-6.050 5.57-0.56 0.51-1.26 0.62-2.2 0.37 0.51-0.48 0.92-0.88 1.35-1.26 0.56-0.5 1.15-0.97 1.69-1.48 1.38-1.29 2.75-2.59 4.11-3.91 0.63-0.61 0.65-0.9 0.22-1.68z"></path>
<path  d="M29.080 2.73c-0.24 0.26-0.47 0.53-0.73 0.76-0.090 0.080-0.29 0.12-0.4 0.070-1.26-0.5-2.52-0.64-3.82-0.14-0.080 0.030-0.24-0.070-0.34-0.14-0.16-0.12-0.31-0.26-0.46-0.39-0.010 0-0.030 0.010-0.080 0.030 0.040 0.11 0.090 0.23 0.1 0.26-0.25 0.2-0.47 0.38-0.8 0.65 0.33-0.63 0.56-1.21 1.11-1.53 1.38-0.78 4.090-0.56 5.42 0.43z"></path>
<path  d="M7.28 23.020c-0.65 0.42-1.55 1.030-2.47 1.59-0.42 0.26-0.49-0.2-0.65-0.42-0.2-0.28-0.070-0.45 0.23-0.58 1.050-0.44 1.94-1.11 2.69-1.96 0.36-0.42 0.72-0.84 1.060-1.28 0.2-0.26 0.37-0.16 0.55-0.010s0.4 0.28 0.17 0.58c-0.47 0.6-0.92 1.21-1.58 2.080z"></path>
<path  d="M20.74 8.57c-0.19 0-0.45 0.070-0.56-0.020-0.23-0.18-0.52-0.39-0.21-0.79 1.010-1.32 2-2.66 2.98-4 0.24-0.33 0.46-0.27 0.73-0.090 0.28 0.19 0.4 0.4 0.15 0.71-0.84 1.090-1.67 2.18-2.51 3.27-0.2 0.26-0.39 0.52-0.58 0.77 0 0.060 0 0.11 0 0.15zM20.15 8.44c0.24-0.050 0.43-0.040 0.52-0.13 0.060-0.060 0.030-0.34-0.030-0.38-0.11-0.060-0.32-0.050-0.42 0.030-0.070 0.050-0.040 0.25-0.070 0.48z"></path>
<path  d="M19.79 8.47c0.31 0.3 0.6 0.7 1.030 0.24 0.43 0.93-0.19 1.33-0.93 1.81-0.090-0.7-0.17-1.34-0.26-1.98 0.060-0.020 0.11-0.040 0.16-0.070z"></path>
<path  d="M8.92 21.22c0.45-0.41 0.25-0.74-0.13-1.050 0.020-0.040 0.030-0.090 0.050-0.13 0.59 0.020 1.17 0.040 1.77 0.060-0.16 0.81-0.78 1.2-1.69 1.12z"></path>
<path  d="M28.020 4.79c0.25-0.26 0.41-0.44 0.66-0.7 0.1 0.29 0.18 0.5 0.29 0.8-0.36-0.040-0.61-0.060-0.95-0.1z"></path>
<path  d="M4.31 23.27c-0.55 0.49-0.55 0.51-0.25 1.3-0.26-0.24-0.45-0.42-0.71-0.67 0.35-0.23 0.66-0.43 0.96-0.63z"></path>
<path  d="M20.15 8.44c0.030-0.23-0.010-0.43 0.070-0.48 0.1-0.070 0.31-0.080 0.42-0.030 0.070 0.030 0.090 0.32 0.030 0.38-0.090 0.090-0.28 0.080-0.52 0.13z"></path>
</symbol>
<symbol id="icon-rope" viewBox="0 0 32 32">
<title>rope</title>
<path d="M17.16 18.86c0.040 1.080 0.38 2.26 1.36 3.18 1.39 1.31 3.36 0.98 4.18-0.75 0.39-0.82 0.58-1.73 0.92-2.58 0.85-2.17 2.96-3.36 5.37-3.010-0.050 0.35-0.11 0.71-0.16 1.050-2.92 0.24-3.59 0.8-4.45 3.58-0.18 0.58-0.36 1.18-0.67 1.69-1.65 2.8-5.1 2.72-6.9-0.14-0.16-0.25-0.27-0.53-0.52-1.020-0.61 2.48-1.83 4.3-3.58 5.79-3.75 3.19-9.16 1.92-10.7-2.6-1.050-3.090 0.21-5.58 2.34-7.74 1.28-1.3 2.87-2.090 4.61-2.63 1.020-0.32 2.050-0.54 2.46-1.86 0.21-0.68 0.94-1.44 1.62-1.69 1.19-0.44 1.47-1.42 1.95-2.34 1.4-2.74 3.15-5.15 6.22-6.18 3.22-1.080 6.97 1.35 6.76 5.070-0.17 3.040-2.050 4.87-4.2 6.58-0.090 0.070-0.2 0.11-0.29 0.17-1.64 1.14-3.6 1.86-4.51 3.91-0.28 0.59-1.11 0.94-1.81 1.52zM13.69 16.090c-1.58 0.63-3.35 1.15-4.91 2.020-1.070 0.6-2 1.6-2.72 2.61-0.74 1.030-0.46 2.23 0.37 3.010 0.82 0.78 2.050 1.010 3.030 0.22 0.97-0.78 1.91-1.76 2.46-2.86 0.8-1.6 1.22-3.39 1.77-5zM17.24 12.23c0.080 0.080 0.16 0.16 0.23 0.24 1.69-1.13 3.43-2.18 5.040-3.43 0.64-0.5 1.12-1.35 1.38-2.14 0.37-1.11-0.52-1.89-1.62-1.52-0.45 0.15-0.89 0.43-1.24 0.76-1.8 1.69-2.72 3.94-3.79 6.090z"></path>
</symbol>
<symbol id="icon-chalk-bag" viewBox="0 0 32 32">
<title>chalk-bag</title>
<path stroke-linejoin="miter" stroke-linecap="butt" stroke-miterlimit="10" stroke-width="2.6667" d="M21.333 10c0 1.841-3.582 3.333-8 3.333s-8-1.492-8-3.333c0-1.841 3.582-3.333 8-3.333s8 1.492 8 3.333z"></path>
<path d="M24 22.4c0 2.133-0.667 6.933-6.667 6.933-3.067 0-6.8 0-8.533 0-4 0-6-4.267-6-7.467s1.733-5.2 1.333-11.867c4.267 4.533 17.867 4.4 18.667 0v4c-4.533 2-9.2 2.667-15.867 0.933 4.933 4.267 13.067 2 16.4 0.8 0 2 0.667 3.2 0.667 6.667z"></path>
<path stroke-linejoin="round" stroke-linecap="butt" stroke-miterlimit="10" stroke-width="2.6667" d="M24 12c8.667 0-0.667 16 5.333 16"></path>
<path stroke-linejoin="round" stroke-linecap="round" stroke-miterlimit="10" stroke-width="2.6667" d="M20 7.467c0 0 0-2.267 0-2.8 0-1.067-0.933-2-2-2s-2 0.933-2 2c0 0.533 0 1.2 0 1.733"></path>
<path stroke-linejoin="round" stroke-linecap="round" stroke-miterlimit="10" stroke-width="2.6667" d="M6.667 7.467c0 0 0-2.267 0-2.8 0-1.067 0.933-2 2-2s2 0.933 2 2c0 0.533 0 1.2 0 1.733"></path>
</symbol>
<symbol id="icon-rope-new" viewBox="0 0 32 32">
<title>rope-new</title>
<path d="M10.085 17.436c-1.316 0.94-2.625 1.484-3.779 1.965-1.090 0.453-2.031 0.845-2.642 1.456-2.063 2.063-2.063 5.419 0 7.481 1.032 1.032 2.386 1.547 3.741 1.547s2.71-0.516 3.741-1.547c0.611-0.61 1.002-1.552 1.456-2.642 0.48-1.154 1.025-2.462 1.964-3.778 0.171-0.239 0.115-0.572-0.124-0.744-0.239-0.171-0.572-0.115-0.744 0.124-1.011 1.415-1.604 2.842-2.082 3.989-0.41 0.985-0.764 1.836-1.225 2.297-1.646 1.646-4.326 1.646-5.973 0s-1.647-4.326 0-5.972c0.461-0.462 1.313-0.816 2.298-1.226 1.147-0.477 2.574-1.070 3.989-2.081 0.24-0.171 0.295-0.505 0.124-0.744s-0.504-0.295-0.744-0.124z"></path>
<path d="M8.137 21.961c0.771-0.28 1.568-0.57 2.204-1.049 0.235-0.177 0.282-0.512 0.105-0.747s-0.511-0.283-0.747-0.105c-0.509 0.383-1.198 0.633-1.927 0.898-0.942 0.342-1.917 0.697-2.614 1.393-0.6 0.6-0.931 1.397-0.931 2.246s0.331 1.645 0.931 2.245c0.599 0.6 1.397 0.93 2.245 0.93s1.646-0.33 2.245-0.93c0.611-0.611 1.003-1.553 1.457-2.643 0.481-1.154 1.024-2.462 1.964-3.777 0.171-0.239 0.116-0.573-0.124-0.744s-0.572-0.116-0.744 0.124c-1.010 1.414-1.604 2.841-2.081 3.988-0.41 0.986-0.764 1.837-1.226 2.299-0.797 0.797-2.186 0.797-2.983 0-0.822-0.822-0.822-2.161 0-2.983 0.529-0.529 1.352-0.828 2.224-1.145z"></path>
<path d="M18.246 21.978l-8.222-8.222c-0.209-0.209-0.546-0.209-0.754 0s-0.209 0.546 0 0.754l8.234 8.233c0.032 0.030 3.172 3.046 1.741 6.383-0.116 0.271 0.010 0.585 0.28 0.7 0.068 0.029 0.14 0.043 0.21 0.043 0.207 0 0.404-0.121 0.49-0.323 1.728-4.031-1.839-7.439-1.979-7.569z"></path>
<path d="M15.937 22.669c-0.239-0.172-0.572-0.116-0.744 0.124-0.956 1.338-1.437 2.568-1.861 3.653-0.409 1.047-0.763 1.951-1.445 2.633-2.472 2.471-6.491 2.471-8.963 0-1.197-1.197-1.856-2.788-1.856-4.481s0.659-3.285 1.856-4.481c0.683-0.683 1.587-1.036 2.634-1.446 1.085-0.424 2.315-0.905 3.653-1.86 0.239-0.172 0.295-0.505 0.124-0.744s-0.505-0.295-0.744-0.124c-1.229 0.878-2.394 1.333-3.421 1.736-1.111 0.434-2.159 0.844-3 1.685-1.399 1.398-2.169 3.257-2.169 5.236s0.77 3.837 2.169 5.236c1.443 1.443 3.339 2.165 5.236 2.165s3.792-0.722 5.236-2.165c0.84-0.84 1.25-1.889 1.684-2.999 0.402-1.028 0.858-2.192 1.736-3.422 0.172-0.24 0.116-0.573-0.124-0.744z"></path>
<path d="M18.987 21.237c0.104 0.105 0.241 0.156 0.377 0.156s0.273-0.052 0.377-0.156c0.208-0.208 0.208-0.546 0-0.754l-8.222-8.222c-0.209-0.208-0.546-0.208-0.754 0s-0.209 0.546 0 0.754l8.222 8.222z"></path>
<path d="M21.607 14.667c0.107 0 0.215-0.033 0.309-0.1 1.316-0.94 2.625-1.484 3.778-1.964 1.090-0.454 2.031-0.845 2.642-1.456 2.062-2.063 2.062-5.419 0-7.481-1-1-2.328-1.55-3.741-1.55s-2.741 0.55-3.74 1.55c-0.611 0.611-1.003 1.552-1.456 2.642-0.481 1.154-1.025 2.462-1.965 3.778-0.171 0.239-0.115 0.573 0.124 0.744s0.572 0.116 0.744-0.124c1.011-1.414 1.604-2.841 2.082-3.988 0.41-0.986 0.764-1.836 1.226-2.298 0.797-0.798 1.858-1.237 2.986-1.237s2.189 0.439 2.987 1.237c1.646 1.646 1.646 4.326 0 5.973-0.461 0.461-1.313 0.816-2.298 1.225-1.147 0.477-2.574 1.071-3.989 2.082-0.24 0.171-0.295 0.504-0.124 0.744 0.105 0.146 0.268 0.224 0.435 0.224z"></path>
<path d="M29.831 2.17c-1.398-1.399-3.258-2.169-5.236-2.169s-3.837 0.77-5.236 2.169c-0.84 0.84-1.25 1.888-1.684 2.998-0.402 1.027-0.858 2.192-1.736 3.423-0.172 0.239-0.116 0.572 0.124 0.744 0.239 0.172 0.572 0.116 0.744-0.124 0.956-1.338 1.437-2.569 1.862-3.654 0.409-1.046 0.763-1.95 1.444-2.632 1.197-1.197 2.788-1.856 4.481-1.856s3.284 0.659 4.481 1.856c1.197 1.197 1.856 2.788 1.856 4.481s-0.659 3.285-1.856 4.481c-0.683 0.682-1.586 1.036-2.633 1.445-1.085 0.425-2.315 0.906-3.653 1.861-0.239 0.171-0.295 0.505-0.124 0.744 0.104 0.146 0.268 0.224 0.435 0.224 0.107 0 0.215-0.033 0.309-0.099 1.229-0.878 2.394-1.334 3.422-1.736 1.11-0.434 2.159-0.844 2.999-1.684 1.398-1.399 2.169-3.258 2.169-5.236s-0.77-3.837-2.169-5.236z"></path>
<path d="M14.508 9.271c-0.209-0.209-0.546-0.209-0.754 0s-0.208 0.546 0 0.754l8.222 8.222c0.104 0.104 0.241 0.156 0.377 0.156s0.273-0.052 0.377-0.156c0.209-0.209 0.209-0.546 0-0.754l-8.222-8.222z"></path>
<path d="M13.013 10.766c-0.208-0.209-0.546-0.209-0.754 0s-0.208 0.546 0 0.754l8.223 8.222c0.105 0.105 0.241 0.156 0.377 0.156s0.273-0.052 0.378-0.156c0.208-0.208 0.208-0.546 0-0.754l-8.223-8.222z"></path>
<path d="M23.863 10.042c-0.771 0.28-1.568 0.57-2.204 1.049-0.235 0.177-0.282 0.511-0.105 0.747s0.513 0.283 0.747 0.106c0.509-0.383 1.198-0.633 1.927-0.898 0.942-0.342 1.918-0.697 2.614-1.393 0.6-0.6 0.93-1.398 0.93-2.246s-0.33-1.646-0.93-2.246c-1.239-1.238-3.253-1.237-4.492 0-0.611 0.611-1.003 1.553-1.456 2.642-0.481 1.154-1.025 2.463-1.965 3.779-0.171 0.239-0.116 0.572 0.124 0.744 0.093 0.067 0.202 0.1 0.309 0.1 0.166 0 0.33-0.078 0.434-0.223 1.011-1.415 1.604-2.842 2.082-3.989 0.41-0.986 0.764-1.836 1.225-2.298 0.821-0.822 2.161-0.822 2.983 0 0.398 0.399 0.618 0.929 0.618 1.492s-0.219 1.093-0.618 1.492c-0.529 0.528-1.352 0.828-2.224 1.144z"></path>
</symbol>
<symbol id="icon-chalk-bag-new" viewBox="0 0 32 32">
<title>chalk-bag-new</title>
<path d="M6.543 0.389c-0.822 0.184-1.325 0.632-1.663 1.479-0.129 0.331-0.141 0.46-0.141 1.381-0.006 0.945 0.086 1.694 0.307 2.491 0.025 0.104-0.006 0.135-0.203 0.196-0.129 0.037-0.497 0.196-0.816 0.356-1.467 0.712-2.27 1.528-2.442 2.473-0.092 0.497 0.166 3.013 0.503 4.94 0.184 1.074-0.123 3.056-0.908 5.787s-0.859 3.111-0.859 4.436c-0.006 0.73 0.025 1.166 0.104 1.565 0.589 2.982 2.264 5.026 4.799 5.848 1.092 0.356 0.945 0.35 7.609 0.35 5.572 0 6.21-0.012 6.928-0.11 1.73-0.239 2.706-0.54 3.633-1.117 0.534-0.338 1.276-1.105 1.54-1.602 0.601-1.129 0.816-2.62 0.693-4.811-0.153-2.767-0.736-5.793-1.712-8.885-0.098-0.307-0.16-0.577-0.135-0.589 0.025-0.019 0.393-0.061 0.822-0.104 2.203-0.221 3.694 0.466 4.271 1.97 0.239 0.62 0.313 1.055 0.313 1.865 0 1.196-0.203 2.123-0.853 3.89-0.374 1.019-0.644 1.908-0.847 2.804-0.16 0.706-0.16 2.43 0 2.939 0.479 1.546 1.749 2.491 3.344 2.491 0.528 0 0.718-0.098 0.816-0.423 0.141-0.485-0.16-0.761-0.902-0.828-1.522-0.141-2.27-1.16-2.141-2.945 0.068-1.006 0.344-2.086 0.951-3.718 0.681-1.841 0.884-2.804 0.884-4.203 0-1.092-0.104-1.675-0.454-2.498-0.516-1.215-1.559-2.086-2.933-2.454-0.571-0.153-2.129-0.221-2.835-0.123-0.252 0.037-0.46 0.061-0.466 0.055s0.037-0.276 0.104-0.595c0.19-0.988 0.313-2.412 0.288-3.314-0.025-0.761-0.043-0.859-0.209-1.196-0.368-0.761-1.338-1.522-2.62-2.062-0.344-0.147-0.638-0.27-0.644-0.276-0.012-0.006 0.031-0.288 0.098-0.62 0.417-2.050 0.294-3.363-0.399-4.13-0.35-0.387-0.675-0.583-1.184-0.7-1.332-0.313-2.589 0.203-3.179 1.295-0.307 0.577-0.479 1.344-0.595 2.657l-0.037 0.399h-5.087v-0.338c0-0.448-0.153-1.509-0.282-1.951-0.252-0.877-0.742-1.528-1.393-1.841s-1.344-0.392-2.068-0.232zM7.991 1.709c0.62 0.282 0.92 1.043 1.043 2.676l0.037 0.558-0.54 0.074c-0.301 0.043-0.927 0.166-1.393 0.264-0.473 0.104-0.859 0.178-0.865 0.166-0.012-0.012-0.061-0.252-0.116-0.54-0.368-1.89-0.252-2.847 0.387-3.179 0.356-0.179 1.074-0.191 1.448-0.019zM19.043 1.66c0.27 0.098 0.497 0.356 0.607 0.687 0.086 0.258 0.098 0.454 0.068 1.141-0.037 0.712-0.209 1.853-0.301 1.939-0.019 0.019-0.331-0.037-0.7-0.116s-0.982-0.196-1.356-0.258l-0.693-0.11v-0.368c0-0.466 0.141-1.442 0.264-1.828 0.258-0.822 0.687-1.154 1.491-1.154 0.245-0.001 0.522 0.030 0.62 0.067zM15.686 6.102c2.915 0.307 5.179 0.976 6.419 1.89 0.528 0.387 0.718 0.651 0.742 1.043 0.025 0.27 0 0.362-0.153 0.601-0.589 0.914-2.81 1.828-5.48 2.264-1.878 0.301-4.737 0.405-6.682 0.245-3.835-0.319-7.008-1.436-7.609-2.669-0.153-0.319-0.153-0.466-0.006-0.755 0.638-1.24 3.706-2.332 7.431-2.651 1.27-0.104 1.387-0.11 2.945-0.086 0.828 0.012 1.902 0.061 2.393 0.116zM22.681 12.067c-0.288 1.755-0.35 1.884-1.117 2.393-1.258 0.816-3.522 1.497-6.032 1.804-0.939 0.116-3.393 0.098-4.357-0.031-1.571-0.209-3.001-0.589-4.234-1.117-0.35-0.147-0.693-0.27-0.761-0.27-0.564 0-0.828 0.779-0.374 1.105 0.252 0.178 1.362 0.638 2.074 0.859 0.792 0.239 2.013 0.516 2.958 0.651 0.951 0.141 3.946 0.166 4.97 0.037 2.62-0.319 4.989-1.055 6.461-1.994 0.19-0.123 0.356-0.203 0.368-0.178 0.074 0.123 0.62 2.068 0.835 2.958 0.564 2.319 0.853 4.32 0.908 6.228 0.068 2.491-0.215 3.59-1.154 4.479-0.964 0.908-2.473 1.325-5.24 1.442-1.731 0.080-9.941 0.074-10.849 0-1.129-0.092-1.78-0.288-2.645-0.792-2.234-1.307-3.375-4.295-2.773-7.265 0.086-0.423 0.338-1.393 0.558-2.166 0.712-2.454 1.031-4.044 1.111-5.486 0.031-0.589 0.012-0.859-0.116-1.626-0.203-1.184-0.258-1.712-0.19-1.681 0.031 0.012 0.233 0.129 0.454 0.252 3.013 1.7 9.321 2.313 14.328 1.393 1.927-0.356 3.768-1 4.725-1.644 0.098-0.068 0.184-0.116 0.196-0.104 0.012 0.006-0.037 0.35-0.104 0.755z"></path>
</symbol>
</defs>
</svg>
